<svg width="1000" height="1000" viewBox="0 0 1000 1000" xmlns="http://www.w3.org/2000/svg">
    <defs>
        
        <filter id="neonGlow" x="-50%" y="-50%" width="200%" height="200%">
            <feGaussianBlur stdDeviation="15" result="blur1" />
            <feGaussianBlur stdDeviation="30" result="blur2" />
            <feMerge>
                <feMergeNode in="blur2" />
                <feMergeNode in="blur1" />
                <feMergeNode in="SourceGraphic" />
            </feMerge>
        </filter>
        <filter id="microGlow" x="-20%" y="-20%" width="140%" height="140%">
            <feGaussianBlur stdDeviation="4" result="blur" />
            <feMerge>
                <feMergeNode in="blur" />
                <feMergeNode in="SourceGraphic" />
            </feMerge>
        </filter>
        <radialGradient id="auraGrad" cx="50%" cy="50%" r="50%">
            <stop offset="0%" stop-color="#008cff" stop-opacity="0.3"/>
            <stop offset="100%" stop-color="transparent" />
        </radialGradient>
        
    </defs>
    
    <!-- Atmosfera -->
    
        <rect width="1000" height="1000" fill="#050505" />
        <circle cx="500" cy="500" r="600" fill="url(#auraGrad)" opacity="0.5"/>
        <g><line x1="0" y1="0" x2="1000" y2="0" stroke="#008cff" stroke-width="0.5" opacity="0.05"/><line x1="0" y1="100" x2="1000" y2="100" stroke="#008cff" stroke-width="0.5" opacity="0.05"/><line x1="0" y1="200" x2="1000" y2="200" stroke="#008cff" stroke-width="0.5" opacity="0.05"/><line x1="0" y1="300" x2="1000" y2="300" stroke="#008cff" stroke-width="0.5" opacity="0.05"/><line x1="0" y1="400" x2="1000" y2="400" stroke="#008cff" stroke-width="0.5" opacity="0.05"/><line x1="0" y1="500" x2="1000" y2="500" stroke="#008cff" stroke-width="0.5" opacity="0.05"/><line x1="0" y1="600" x2="1000" y2="600" stroke="#008cff" stroke-width="0.5" opacity="0.05"/><line x1="0" y1="700" x2="1000" y2="700" stroke="#008cff" stroke-width="0.5" opacity="0.05"/><line x1="0" y1="800" x2="1000" y2="800" stroke="#008cff" stroke-width="0.5" opacity="0.05"/><line x1="0" y1="900" x2="1000" y2="900" stroke="#008cff" stroke-width="0.5" opacity="0.05"/><line x1="0" y1="1000" x2="1000" y2="1000" stroke="#008cff" stroke-width="0.5" opacity="0.05"/><line x1="0" y1="0" x2="0" y2="1000" stroke="#008cff" stroke-width="0.5" opacity="0.05"/><line x1="100" y1="0" x2="100" y2="1000" stroke="#008cff" stroke-width="0.5" opacity="0.05"/><line x1="200" y1="0" x2="200" y2="1000" stroke="#008cff" stroke-width="0.5" opacity="0.05"/><line x1="300" y1="0" x2="300" y2="1000" stroke="#008cff" stroke-width="0.5" opacity="0.05"/><line x1="400" y1="0" x2="400" y2="1000" stroke="#008cff" stroke-width="0.5" opacity="0.05"/><line x1="500" y1="0" x2="500" y2="1000" stroke="#008cff" stroke-width="0.5" opacity="0.05"/><line x1="600" y1="0" x2="600" y2="1000" stroke="#008cff" stroke-width="0.5" opacity="0.05"/><line x1="700" y1="0" x2="700" y2="1000" stroke="#008cff" stroke-width="0.5" opacity="0.05"/><line x1="800" y1="0" x2="800" y2="1000" stroke="#008cff" stroke-width="0.5" opacity="0.05"/><line x1="900" y1="0" x2="900" y2="1000" stroke="#008cff" stroke-width="0.5" opacity="0.05"/><line x1="1000" y1="0" x2="1000" y2="1000" stroke="#008cff" stroke-width="0.5" opacity="0.05"/></g>
        <g><circle cx="921" cy="444" r="0.9699596414517766" fill="#008cff" opacity="0.20860015848305713"> <animate attributeName="opacity" values="0.1;0.5;0.1" dur="7s" repeatCount="indefinite" /> </circle><circle cx="820" cy="901" r="1.1070562208927914" fill="#008cff" opacity="0.10013864015357271"> <animate attributeName="opacity" values="0.1;0.5;0.1" dur="6s" repeatCount="indefinite" /> </circle><circle cx="380" cy="485" r="1.4983272127642038" fill="#008cff" opacity="0.0522745355079659"> <animate attributeName="opacity" values="0.1;0.5;0.1" dur="3s" repeatCount="indefinite" /> </circle><circle cx="296" cy="501" r="0.3493423010337364" fill="#008cff" opacity="0.180756079306978"> <animate attributeName="opacity" values="0.1;0.5;0.1" dur="7s" repeatCount="indefinite" /> </circle><circle cx="657" cy="105" r="0.7636295602044898" fill="#008cff" opacity="0.004810978309272862"> <animate attributeName="opacity" values="0.1;0.5;0.1" dur="6s" repeatCount="indefinite" /> </circle><circle cx="483" cy="829" r="1.9300170069792295" fill="#008cff" opacity="0.2532078723602324"> <animate attributeName="opacity" values="0.1;0.5;0.1" dur="7s" repeatCount="indefinite" /> </circle><circle cx="885" cy="850" r="1.3843535664429965" fill="#008cff" opacity="0.22935090178706"> <animate attributeName="opacity" values="0.1;0.5;0.1" dur="5s" repeatCount="indefinite" /> </circle><circle cx="332" cy="669" r="1.4468250721418123" fill="#008cff" opacity="0.3220897937494972"> <animate attributeName="opacity" values="0.1;0.5;0.1" dur="7s" repeatCount="indefinite" /> </circle><circle cx="631" cy="477" r="0.1655157616799321" fill="#008cff" opacity="0.3979038522658087"> <animate attributeName="opacity" values="0.1;0.5;0.1" dur="5s" repeatCount="indefinite" /> </circle><circle cx="804" cy="772" r="0.945438736427676" fill="#008cff" opacity="0.15449479592435625"> <animate attributeName="opacity" values="0.1;0.5;0.1" dur="7s" repeatCount="indefinite" /> </circle><circle cx="628" cy="113" r="1.0138341967080438" fill="#008cff" opacity="0.26937353470997816"> <animate attributeName="opacity" values="0.1;0.5;0.1" dur="5s" repeatCount="indefinite" /> </circle><circle cx="31" cy="38" r="0.4597968008598179" fill="#008cff" opacity="0.3282271806319796"> <animate attributeName="opacity" values="0.1;0.5;0.1" dur="4s" repeatCount="indefinite" /> </circle><circle cx="375" cy="268" r="0.9790118938957921" fill="#008cff" opacity="0.34040046292608556"> <animate attributeName="opacity" values="0.1;0.5;0.1" dur="4s" repeatCount="indefinite" /> </circle><circle cx="748" cy="201" r="0.15544740047518046" fill="#008cff" opacity="0.2659198535825175"> <animate attributeName="opacity" values="0.1;0.5;0.1" dur="6s" repeatCount="indefinite" /> </circle><circle cx="752" cy="484" r="1.985191951711176" fill="#008cff" opacity="0.16854219176930996"> <animate attributeName="opacity" values="0.1;0.5;0.1" dur="4s" repeatCount="indefinite" /> </circle><circle cx="737" cy="536" r="0.7694461702967061" fill="#008cff" opacity="0.0261776858805586"> <animate attributeName="opacity" values="0.1;0.5;0.1" dur="3s" repeatCount="indefinite" /> </circle><circle cx="268" cy="662" r="1.6386989558424232" fill="#008cff" opacity="0.04274399409842858"> <animate attributeName="opacity" values="0.1;0.5;0.1" dur="4s" repeatCount="indefinite" /> </circle><circle cx="746" cy="516" r="1.6534517246628124" fill="#008cff" opacity="0.31370221379898416"> <animate attributeName="opacity" values="0.1;0.5;0.1" dur="6s" repeatCount="indefinite" /> </circle><circle cx="914" cy="95" r="0.9018597827206185" fill="#008cff" opacity="0.04232350857945799"> <animate attributeName="opacity" values="0.1;0.5;0.1" dur="5s" repeatCount="indefinite" /> </circle><circle cx="530" cy="840" r="1.2330318351743237" fill="#008cff" opacity="0.2538193379862857"> <animate attributeName="opacity" values="0.1;0.5;0.1" dur="3s" repeatCount="indefinite" /> </circle><circle cx="320" cy="66" r="0.8199286864955595" fill="#008cff" opacity="0.34334678777979144"> <animate attributeName="opacity" values="0.1;0.5;0.1" dur="7s" repeatCount="indefinite" /> </circle><circle cx="401" cy="265" r="1.2480255699200797" fill="#008cff" opacity="0.1610186334721714"> <animate attributeName="opacity" values="0.1;0.5;0.1" dur="7s" repeatCount="indefinite" /> </circle><circle cx="801" cy="441" r="0.6526979395132531" fill="#008cff" opacity="0.025219529093392846"> <animate attributeName="opacity" values="0.1;0.5;0.1" dur="6s" repeatCount="indefinite" /> </circle><circle cx="150" cy="922" r="1.4885853648068157" fill="#008cff" opacity="0.1408539467404206"> <animate attributeName="opacity" values="0.1;0.5;0.1" dur="6s" repeatCount="indefinite" /> </circle><circle cx="272" cy="974" r="1.5690515037908426" fill="#008cff" opacity="0.14829738565219955"> <animate attributeName="opacity" values="0.1;0.5;0.1" dur="6s" repeatCount="indefinite" /> </circle><circle cx="410" cy="525" r="0.6525295285503094" fill="#008cff" opacity="0.36296362757764333"> <animate attributeName="opacity" values="0.1;0.5;0.1" dur="5s" repeatCount="indefinite" /> </circle><circle cx="695" cy="49" r="1.125799780724272" fill="#008cff" opacity="0.057472060905871605"> <animate attributeName="opacity" values="0.1;0.5;0.1" dur="6s" repeatCount="indefinite" /> </circle><circle cx="696" cy="496" r="0.9520067355294177" fill="#008cff" opacity="0.2834843359131564"> <animate attributeName="opacity" values="0.1;0.5;0.1" dur="6s" repeatCount="indefinite" /> </circle><circle cx="907" cy="449" r="0.08432509230650931" fill="#008cff" opacity="0.31936479920747374"> <animate attributeName="opacity" values="0.1;0.5;0.1" dur="5s" repeatCount="indefinite" /> </circle><circle cx="731" cy="787" r="1.743590406167581" fill="#008cff" opacity="0.3971423422677255"> <animate attributeName="opacity" values="0.1;0.5;0.1" dur="5s" repeatCount="indefinite" /> </circle><circle cx="284" cy="557" r="1.7266889262902783" fill="#008cff" opacity="0.17211872193143882"> <animate attributeName="opacity" values="0.1;0.5;0.1" dur="4s" repeatCount="indefinite" /> </circle><circle cx="492" cy="808" r="1.5589401946660126" fill="#008cff" opacity="0.2656702740657792"> <animate attributeName="opacity" values="0.1;0.5;0.1" dur="6s" repeatCount="indefinite" /> </circle><circle cx="375" cy="85" r="1.661479392490169" fill="#008cff" opacity="0.396087945107099"> <animate attributeName="opacity" values="0.1;0.5;0.1" dur="5s" repeatCount="indefinite" /> </circle><circle cx="790" cy="874" r="0.2246671903926174" fill="#008cff" opacity="0.13500079439645615"> <animate attributeName="opacity" values="0.1;0.5;0.1" dur="5s" repeatCount="indefinite" /> </circle><circle cx="177" cy="439" r="1.273282829021608" fill="#008cff" opacity="0.05638436054192986"> <animate attributeName="opacity" values="0.1;0.5;0.1" dur="5s" repeatCount="indefinite" /> </circle><circle cx="891" cy="129" r="0.21583109824493985" fill="#008cff" opacity="0.013714948675753203"> <animate attributeName="opacity" values="0.1;0.5;0.1" dur="7s" repeatCount="indefinite" /> </circle><circle cx="955" cy="505" r="1.9329667184590726" fill="#008cff" opacity="0.0711590661260194"> <animate attributeName="opacity" values="0.1;0.5;0.1" dur="4s" repeatCount="indefinite" /> </circle><circle cx="187" cy="674" r="1.5399357140294925" fill="#008cff" opacity="0.10835590511429737"> <animate attributeName="opacity" values="0.1;0.5;0.1" dur="5s" repeatCount="indefinite" /> </circle><circle cx="297" cy="315" r="0.6036817712483555" fill="#008cff" opacity="0.3461119730804957"> <animate attributeName="opacity" values="0.1;0.5;0.1" dur="4s" repeatCount="indefinite" /> </circle><circle cx="702" cy="407" r="0.7972041513215162" fill="#008cff" opacity="0.13727777516492085"> <animate attributeName="opacity" values="0.1;0.5;0.1" dur="7s" repeatCount="indefinite" /> </circle><circle cx="57" cy="325" r="1.9848100722324367" fill="#008cff" opacity="0.3781292876932439"> <animate attributeName="opacity" values="0.1;0.5;0.1" dur="4s" repeatCount="indefinite" /> </circle><circle cx="586" cy="835" r="0.41377644206804143" fill="#008cff" opacity="0.17262413560596712"> <animate attributeName="opacity" values="0.1;0.5;0.1" dur="7s" repeatCount="indefinite" /> </circle><circle cx="403" cy="469" r="1.912160812961661" fill="#008cff" opacity="0.06013239296474393"> <animate attributeName="opacity" values="0.1;0.5;0.1" dur="5s" repeatCount="indefinite" /> </circle><circle cx="64" cy="998" r="0.7537532846490009" fill="#008cff" opacity="0.08336576113790369"> <animate attributeName="opacity" values="0.1;0.5;0.1" dur="3s" repeatCount="indefinite" /> </circle><circle cx="647" cy="609" r="1.9493282076785554" fill="#008cff" opacity="0.1346835349007999"> <animate attributeName="opacity" values="0.1;0.5;0.1" dur="7s" repeatCount="indefinite" /> </circle><circle cx="838" cy="244" r="0.259520410293441" fill="#008cff" opacity="0.2717612614783339"> <animate attributeName="opacity" values="0.1;0.5;0.1" dur="7s" repeatCount="indefinite" /> </circle><circle cx="514" cy="77" r="0.10095815851923318" fill="#008cff" opacity="0.3873340801209594"> <animate attributeName="opacity" values="0.1;0.5;0.1" dur="7s" repeatCount="indefinite" /> </circle><circle cx="317" cy="472" r="1.501362955252778" fill="#008cff" opacity="0.2886713422017962"> <animate attributeName="opacity" values="0.1;0.5;0.1" dur="3s" repeatCount="indefinite" /> </circle><circle cx="868" cy="480" r="1.3906973094452109" fill="#008cff" opacity="0.3533082362508095"> <animate attributeName="opacity" values="0.1;0.5;0.1" dur="4s" repeatCount="indefinite" /> </circle><circle cx="663" cy="941" r="0.8498116930228583" fill="#008cff" opacity="0.26813811726706066"> <animate attributeName="opacity" values="0.1;0.5;0.1" dur="7s" repeatCount="indefinite" /> </circle></g>
        
    
    <!-- Entidad Quantum -->
    <g transform="translate(100, 100) scale(0.8)">
        
        <g filter="url(#neonGlow)">
            <path d="M280,650 Q150,550 200,300 Q250,100 500,100 Q750,100 800,400 Q850,700 700,850" fill="none" stroke="#008cff" stroke-width="4" stroke-dasharray="10,5" opacity="0.4" />
            <path d="M280,850 C280,700 300,550 450,450 C550,380 650,400 700,500 C730,580 720,620 680,680 C640,740 600,750 580,800 C560,850 580,920 620,1000" fill="none" stroke="#008cff" stroke-width="8" opacity="0.8" />
            <path d="M280,850 C280,700 300,550 450,450 C550,380 650,400 700,500 C730,580 720,620 680,680 C640,740 600,750 580,800 C560,850 580,920 620,1000" fill="none" stroke="#008cff" stroke-width="2" />
        </g>
        <g><circle cx="550" cy="520" r="15" fill="none" stroke="#008cff" stroke-width="2" filter="url(#microGlow)"/> <path d="M530,520 L570,520 M550,500 L550,540" stroke="#008cff" stroke-width="1"/></g>
        <g><circle cx="525" cy="586" r="4" fill="#008cff" filter="url(#microGlow)"/><circle cx="616" cy="497" r="2" fill="#008cff" filter="url(#microGlow)"/><circle cx="403" cy="749" r="3" fill="#008cff" filter="url(#microGlow)"/><circle cx="529" cy="451" r="4" fill="#008cff" filter="url(#microGlow)"/><circle cx="557" cy="588" r="2" fill="#008cff" filter="url(#microGlow)"/></g>
        <g><path d="M512,435 h30 v30" fill="none" stroke="#008cff" stroke-width="0.8" opacity="0.6"/><path d="M581,254 h30 v30" fill="none" stroke="#008cff" stroke-width="0.8" opacity="0.6"/><path d="M549,406 h30 v30" fill="none" stroke="#008cff" stroke-width="0.8" opacity="0.6"/><path d="M505,534 h30 v30" fill="none" stroke="#008cff" stroke-width="0.8" opacity="0.6"/><path d="M464,508 h30 v30" fill="none" stroke="#008cff" stroke-width="0.8" opacity="0.6"/><path d="M318,694 h30 v30" fill="none" stroke="#008cff" stroke-width="0.8" opacity="0.6"/><path d="M691,695 h30 v30" fill="none" stroke="#008cff" stroke-width="0.8" opacity="0.6"/><path d="M463,512 h30 v30" fill="none" stroke="#008cff" stroke-width="0.8" opacity="0.6"/><path d="M442,639 h30 v30" fill="none" stroke="#008cff" stroke-width="0.8" opacity="0.6"/><path d="M537,290 h30 v30" fill="none" stroke="#008cff" stroke-width="0.8" opacity="0.6"/></g>
        
    </g>
    
    <!-- HUD Layer -->
    
        <g font-family="monospace" font-size="10" fill="#008cff" opacity="0.7">
            <!-- Esquinas -->
            <path d="M50,50 L100,50 M50,50 L50,100" stroke="#008cff" fill="none"/>
            <path d="M950,50 L900,50 M950,50 L950,100" stroke="#008cff" fill="none"/>
            <path d="M50,950 L100,950 M50,950 L50,900" stroke="#008cff" fill="none"/>
            <path d="M950,950 L900,950 M950,950 L950,900" stroke="#008cff" fill="none"/>
            
            <text x="60" y="65">SCANNING_NEURAL_LINK...</text>
            <text x="60" y="80">QUANTUM_STABILITY: 98.4%</text>
            <text x="60" y="935">DEITY_CLASS: CYBER MUSE</text>
            <text x="800" y="935">REF_0x51E37E</text>
        </g>
        
</svg>