<svg width="1000" height="1000" viewBox="0 0 1000 1000" xmlns="http://www.w3.org/2000/svg">
    <defs>
        
        <filter id="neonGlow" x="-50%" y="-50%" width="200%" height="200%">
            <feGaussianBlur stdDeviation="15" result="blur1" />
            <feGaussianBlur stdDeviation="30" result="blur2" />
            <feMerge>
                <feMergeNode in="blur2" />
                <feMergeNode in="blur1" />
                <feMergeNode in="SourceGraphic" />
            </feMerge>
        </filter>
        <filter id="microGlow" x="-20%" y="-20%" width="140%" height="140%">
            <feGaussianBlur stdDeviation="4" result="blur" />
            <feMerge>
                <feMergeNode in="blur" />
                <feMergeNode in="SourceGraphic" />
            </feMerge>
        </filter>
        <radialGradient id="auraGrad" cx="50%" cy="50%" r="50%">
            <stop offset="0%" stop-color="#bc13fe" stop-opacity="0.3"/>
            <stop offset="100%" stop-color="transparent" />
        </radialGradient>
        
    </defs>
    
    <!-- Atmosfera -->
    
        <rect width="1000" height="1000" fill="#050505" />
        <circle cx="500" cy="500" r="600" fill="url(#auraGrad)" opacity="0.5"/>
        <g><line x1="0" y1="0" x2="1000" y2="0" stroke="#bc13fe" stroke-width="0.5" opacity="0.05"/><line x1="0" y1="100" x2="1000" y2="100" stroke="#bc13fe" stroke-width="0.5" opacity="0.05"/><line x1="0" y1="200" x2="1000" y2="200" stroke="#bc13fe" stroke-width="0.5" opacity="0.05"/><line x1="0" y1="300" x2="1000" y2="300" stroke="#bc13fe" stroke-width="0.5" opacity="0.05"/><line x1="0" y1="400" x2="1000" y2="400" stroke="#bc13fe" stroke-width="0.5" opacity="0.05"/><line x1="0" y1="500" x2="1000" y2="500" stroke="#bc13fe" stroke-width="0.5" opacity="0.05"/><line x1="0" y1="600" x2="1000" y2="600" stroke="#bc13fe" stroke-width="0.5" opacity="0.05"/><line x1="0" y1="700" x2="1000" y2="700" stroke="#bc13fe" stroke-width="0.5" opacity="0.05"/><line x1="0" y1="800" x2="1000" y2="800" stroke="#bc13fe" stroke-width="0.5" opacity="0.05"/><line x1="0" y1="900" x2="1000" y2="900" stroke="#bc13fe" stroke-width="0.5" opacity="0.05"/><line x1="0" y1="1000" x2="1000" y2="1000" stroke="#bc13fe" stroke-width="0.5" opacity="0.05"/><line x1="0" y1="0" x2="0" y2="1000" stroke="#bc13fe" stroke-width="0.5" opacity="0.05"/><line x1="100" y1="0" x2="100" y2="1000" stroke="#bc13fe" stroke-width="0.5" opacity="0.05"/><line x1="200" y1="0" x2="200" y2="1000" stroke="#bc13fe" stroke-width="0.5" opacity="0.05"/><line x1="300" y1="0" x2="300" y2="1000" stroke="#bc13fe" stroke-width="0.5" opacity="0.05"/><line x1="400" y1="0" x2="400" y2="1000" stroke="#bc13fe" stroke-width="0.5" opacity="0.05"/><line x1="500" y1="0" x2="500" y2="1000" stroke="#bc13fe" stroke-width="0.5" opacity="0.05"/><line x1="600" y1="0" x2="600" y2="1000" stroke="#bc13fe" stroke-width="0.5" opacity="0.05"/><line x1="700" y1="0" x2="700" y2="1000" stroke="#bc13fe" stroke-width="0.5" opacity="0.05"/><line x1="800" y1="0" x2="800" y2="1000" stroke="#bc13fe" stroke-width="0.5" opacity="0.05"/><line x1="900" y1="0" x2="900" y2="1000" stroke="#bc13fe" stroke-width="0.5" opacity="0.05"/><line x1="1000" y1="0" x2="1000" y2="1000" stroke="#bc13fe" stroke-width="0.5" opacity="0.05"/></g>
        <g><circle cx="881" cy="49" r="1.6713185892122395" fill="#bc13fe" opacity="0.18276625728932944"> <animate attributeName="opacity" values="0.1;0.5;0.1" dur="7s" repeatCount="indefinite" /> </circle><circle cx="226" cy="496" r="1.6452613243101422" fill="#bc13fe" opacity="0.007030237245536553"> <animate attributeName="opacity" values="0.1;0.5;0.1" dur="4s" repeatCount="indefinite" /> </circle><circle cx="153" cy="482" r="0.01288372529706261" fill="#bc13fe" opacity="0.35676102008170485"> <animate attributeName="opacity" values="0.1;0.5;0.1" dur="4s" repeatCount="indefinite" /> </circle><circle cx="145" cy="647" r="1.231926808700959" fill="#bc13fe" opacity="0.09596141271665477"> <animate attributeName="opacity" values="0.1;0.5;0.1" dur="3s" repeatCount="indefinite" /> </circle><circle cx="337" cy="375" r="0.5239076253225547" fill="#bc13fe" opacity="0.28573402242303375"> <animate attributeName="opacity" values="0.1;0.5;0.1" dur="7s" repeatCount="indefinite" /> </circle><circle cx="333" cy="881" r="0.747243061261269" fill="#bc13fe" opacity="0.2442284439223037"> <animate attributeName="opacity" values="0.1;0.5;0.1" dur="4s" repeatCount="indefinite" /> </circle><circle cx="965" cy="361" r="0.4147518651466715" fill="#bc13fe" opacity="0.1556603418289813"> <animate attributeName="opacity" values="0.1;0.5;0.1" dur="7s" repeatCount="indefinite" /> </circle><circle cx="745" cy="243" r="1.6181732859865683" fill="#bc13fe" opacity="0.3240509322053927"> <animate attributeName="opacity" values="0.1;0.5;0.1" dur="7s" repeatCount="indefinite" /> </circle><circle cx="804" cy="25" r="0.09724345859536365" fill="#bc13fe" opacity="0.11898859898391533"> <animate attributeName="opacity" values="0.1;0.5;0.1" dur="7s" repeatCount="indefinite" /> </circle><circle cx="144" cy="686" r="0.7292035093045712" fill="#bc13fe" opacity="0.3342123642491471"> <animate attributeName="opacity" values="0.1;0.5;0.1" dur="3s" repeatCount="indefinite" /> </circle><circle cx="907" cy="329" r="1.6469853455497525" fill="#bc13fe" opacity="0.23436972246499838"> <animate attributeName="opacity" values="0.1;0.5;0.1" dur="4s" repeatCount="indefinite" /> </circle><circle cx="298" cy="870" r="1.221906805404936" fill="#bc13fe" opacity="0.03212403797812904"> <animate attributeName="opacity" values="0.1;0.5;0.1" dur="3s" repeatCount="indefinite" /> </circle><circle cx="155" cy="259" r="1.1276124790374566" fill="#bc13fe" opacity="0.12982795568795633"> <animate attributeName="opacity" values="0.1;0.5;0.1" dur="5s" repeatCount="indefinite" /> </circle><circle cx="692" cy="375" r="1.4674959548896178" fill="#bc13fe" opacity="0.10004744423774566"> <animate attributeName="opacity" values="0.1;0.5;0.1" dur="4s" repeatCount="indefinite" /> </circle><circle cx="269" cy="858" r="0.06133065051870523" fill="#bc13fe" opacity="0.34892715897274224"> <animate attributeName="opacity" values="0.1;0.5;0.1" dur="3s" repeatCount="indefinite" /> </circle><circle cx="636" cy="125" r="1.8210550918560293" fill="#bc13fe" opacity="0.018450150392935738"> <animate attributeName="opacity" values="0.1;0.5;0.1" dur="3s" repeatCount="indefinite" /> </circle><circle cx="98" cy="355" r="1.702077862494995" fill="#bc13fe" opacity="0.18804761453019014"> <animate attributeName="opacity" values="0.1;0.5;0.1" dur="7s" repeatCount="indefinite" /> </circle><circle cx="26" cy="446" r="0.656522667052883" fill="#bc13fe" opacity="0.25993894382155885"> <animate attributeName="opacity" values="0.1;0.5;0.1" dur="7s" repeatCount="indefinite" /> </circle><circle cx="641" cy="265" r="0.31111038899395993" fill="#bc13fe" opacity="0.2598297727915966"> <animate attributeName="opacity" values="0.1;0.5;0.1" dur="7s" repeatCount="indefinite" /> </circle><circle cx="749" cy="291" r="0.9005783311090882" fill="#bc13fe" opacity="0.38141877822871173"> <animate attributeName="opacity" values="0.1;0.5;0.1" dur="7s" repeatCount="indefinite" /> </circle><circle cx="787" cy="39" r="1.5288620418534957" fill="#bc13fe" opacity="0.1339676353539698"> <animate attributeName="opacity" values="0.1;0.5;0.1" dur="6s" repeatCount="indefinite" /> </circle><circle cx="447" cy="791" r="1.129747790119143" fill="#bc13fe" opacity="0.09856507089420488"> <animate attributeName="opacity" values="0.1;0.5;0.1" dur="5s" repeatCount="indefinite" /> </circle><circle cx="417" cy="436" r="0.5994479401926509" fill="#bc13fe" opacity="0.14707530023129564"> <animate attributeName="opacity" values="0.1;0.5;0.1" dur="4s" repeatCount="indefinite" /> </circle><circle cx="122" cy="535" r="0.08362331106480414" fill="#bc13fe" opacity="0.3561599085233226"> <animate attributeName="opacity" values="0.1;0.5;0.1" dur="5s" repeatCount="indefinite" /> </circle><circle cx="454" cy="424" r="1.757828998842277" fill="#bc13fe" opacity="0.12299954362451167"> <animate attributeName="opacity" values="0.1;0.5;0.1" dur="6s" repeatCount="indefinite" /> </circle><circle cx="268" cy="385" r="1.4796876869555031" fill="#bc13fe" opacity="0.37454388868048466"> <animate attributeName="opacity" values="0.1;0.5;0.1" dur="7s" repeatCount="indefinite" /> </circle><circle cx="748" cy="566" r="0.8808616012869712" fill="#bc13fe" opacity="0.23236431177776523"> <animate attributeName="opacity" values="0.1;0.5;0.1" dur="7s" repeatCount="indefinite" /> </circle><circle cx="634" cy="165" r="0.9451937924584906" fill="#bc13fe" opacity="0.36050426308865735"> <animate attributeName="opacity" values="0.1;0.5;0.1" dur="3s" repeatCount="indefinite" /> </circle><circle cx="814" cy="502" r="0.07089370488540792" fill="#bc13fe" opacity="0.31469614701083004"> <animate attributeName="opacity" values="0.1;0.5;0.1" dur="4s" repeatCount="indefinite" /> </circle><circle cx="529" cy="315" r="1.96878888974363" fill="#bc13fe" opacity="0.06638433371426125"> <animate attributeName="opacity" values="0.1;0.5;0.1" dur="3s" repeatCount="indefinite" /> </circle><circle cx="223" cy="955" r="1.219654362131836" fill="#bc13fe" opacity="0.14850109267819495"> <animate attributeName="opacity" values="0.1;0.5;0.1" dur="5s" repeatCount="indefinite" /> </circle><circle cx="973" cy="645" r="1.1090316814853387" fill="#bc13fe" opacity="0.33218188731726966"> <animate attributeName="opacity" values="0.1;0.5;0.1" dur="5s" repeatCount="indefinite" /> </circle><circle cx="330" cy="147" r="1.7008888296515552" fill="#bc13fe" opacity="0.28542577001020425"> <animate attributeName="opacity" values="0.1;0.5;0.1" dur="6s" repeatCount="indefinite" /> </circle><circle cx="359" cy="923" r="1.7066169232093584" fill="#bc13fe" opacity="0.1408985474378827"> <animate attributeName="opacity" values="0.1;0.5;0.1" dur="7s" repeatCount="indefinite" /> </circle><circle cx="88" cy="611" r="1.2869246731245696" fill="#bc13fe" opacity="0.26126558099580044"> <animate attributeName="opacity" values="0.1;0.5;0.1" dur="7s" repeatCount="indefinite" /> </circle><circle cx="446" cy="106" r="1.4471811094244342" fill="#bc13fe" opacity="0.3351688655167083"> <animate attributeName="opacity" values="0.1;0.5;0.1" dur="3s" repeatCount="indefinite" /> </circle><circle cx="482" cy="322" r="1.5375428695173006" fill="#bc13fe" opacity="0.31917650301912137"> <animate attributeName="opacity" values="0.1;0.5;0.1" dur="5s" repeatCount="indefinite" /> </circle><circle cx="350" cy="496" r="0.014726788471953967" fill="#bc13fe" opacity="0.3971584441877813"> <animate attributeName="opacity" values="0.1;0.5;0.1" dur="5s" repeatCount="indefinite" /> </circle><circle cx="439" cy="713" r="0.29875439222798916" fill="#bc13fe" opacity="0.39718468702618265"> <animate attributeName="opacity" values="0.1;0.5;0.1" dur="5s" repeatCount="indefinite" /> </circle><circle cx="982" cy="313" r="1.011409936435274" fill="#bc13fe" opacity="0.2153011260192655"> <animate attributeName="opacity" values="0.1;0.5;0.1" dur="3s" repeatCount="indefinite" /> </circle><circle cx="418" cy="810" r="0.8715235267394805" fill="#bc13fe" opacity="0.3202236711286336"> <animate attributeName="opacity" values="0.1;0.5;0.1" dur="4s" repeatCount="indefinite" /> </circle><circle cx="909" cy="862" r="1.9631249848071737" fill="#bc13fe" opacity="0.0596293574360347"> <animate attributeName="opacity" values="0.1;0.5;0.1" dur="5s" repeatCount="indefinite" /> </circle><circle cx="561" cy="338" r="0.9037015843397529" fill="#bc13fe" opacity="0.23918444371388242"> <animate attributeName="opacity" values="0.1;0.5;0.1" dur="7s" repeatCount="indefinite" /> </circle><circle cx="319" cy="707" r="0.8741546050331239" fill="#bc13fe" opacity="0.25372246074482535"> <animate attributeName="opacity" values="0.1;0.5;0.1" dur="4s" repeatCount="indefinite" /> </circle><circle cx="573" cy="495" r="1.6126171606969715" fill="#bc13fe" opacity="0.13582992686488146"> <animate attributeName="opacity" values="0.1;0.5;0.1" dur="5s" repeatCount="indefinite" /> </circle><circle cx="99" cy="274" r="0.7173691680548249" fill="#bc13fe" opacity="0.09840393357614086"> <animate attributeName="opacity" values="0.1;0.5;0.1" dur="7s" repeatCount="indefinite" /> </circle><circle cx="563" cy="489" r="1.3263680318320223" fill="#bc13fe" opacity="0.09459311505958437"> <animate attributeName="opacity" values="0.1;0.5;0.1" dur="4s" repeatCount="indefinite" /> </circle><circle cx="368" cy="434" r="0.11067843253453069" fill="#bc13fe" opacity="0.015075738276942552"> <animate attributeName="opacity" values="0.1;0.5;0.1" dur="6s" repeatCount="indefinite" /> </circle><circle cx="489" cy="279" r="1.273662902738067" fill="#bc13fe" opacity="0.26813078560478837"> <animate attributeName="opacity" values="0.1;0.5;0.1" dur="3s" repeatCount="indefinite" /> </circle><circle cx="162" cy="469" r="0.920042215715489" fill="#bc13fe" opacity="0.24347232679376024"> <animate attributeName="opacity" values="0.1;0.5;0.1" dur="5s" repeatCount="indefinite" /> </circle></g>
        
    
    <!-- Entidad Quantum -->
    <g transform="translate(100, 100) scale(0.8)">
        
        <g filter="url(#neonGlow)">
            <path d="M300,600 L200,400 L400,150 L700,180 L850,450 L750,650" fill="none" stroke="#bc13fe" stroke-width="4" stroke-dasharray="10,5" opacity="0.4" />
            <path d="M300,900 L350,600 L400,350 L550,250 L750,300 L800,550 L750,750 L650,950 Z" fill="none" stroke="#bc13fe" stroke-width="8" opacity="0.8" />
            <path d="M300,900 L350,600 L400,350 L550,250 L750,300 L800,550 L750,750 L650,950 Z" fill="none" stroke="#bc13fe" stroke-width="2" />
        </g>
        <g><rect x="520" y="480" width="60" height="20" fill="none" stroke="#bc13fe" stroke-width="2" filter="url(#microGlow)"/></g>
        <g><circle cx="583" cy="461" r="5" fill="#bc13fe" filter="url(#microGlow)"/><circle cx="585" cy="742" r="2" fill="#bc13fe" filter="url(#microGlow)"/><circle cx="606" cy="493" r="5" fill="#bc13fe" filter="url(#microGlow)"/><circle cx="412" cy="660" r="4" fill="#bc13fe" filter="url(#microGlow)"/><circle cx="602" cy="622" r="5" fill="#bc13fe" filter="url(#microGlow)"/></g>
        <g><path d="M336,332 h30 v30" fill="none" stroke="#bc13fe" stroke-width="0.8" opacity="0.6"/><path d="M397,799 h30 v30" fill="none" stroke="#bc13fe" stroke-width="0.8" opacity="0.6"/><path d="M305,426 h30 v30" fill="none" stroke="#bc13fe" stroke-width="0.8" opacity="0.6"/><path d="M488,747 h30 v30" fill="none" stroke="#bc13fe" stroke-width="0.8" opacity="0.6"/><path d="M636,677 h30 v30" fill="none" stroke="#bc13fe" stroke-width="0.8" opacity="0.6"/><path d="M570,492 h30 v30" fill="none" stroke="#bc13fe" stroke-width="0.8" opacity="0.6"/><path d="M446,569 h30 v30" fill="none" stroke="#bc13fe" stroke-width="0.8" opacity="0.6"/><path d="M449,761 h30 v30" fill="none" stroke="#bc13fe" stroke-width="0.8" opacity="0.6"/><path d="M464,722 h30 v30" fill="none" stroke="#bc13fe" stroke-width="0.8" opacity="0.6"/><path d="M364,400 h30 v30" fill="none" stroke="#bc13fe" stroke-width="0.8" opacity="0.6"/></g>
        
    </g>
    
    <!-- HUD Layer -->
    
        <g font-family="monospace" font-size="10" fill="#bc13fe" opacity="0.7">
            <!-- Esquinas -->
            <path d="M50,50 L100,50 M50,50 L50,100" stroke="#bc13fe" fill="none"/>
            <path d="M950,50 L900,50 M950,50 L950,100" stroke="#bc13fe" fill="none"/>
            <path d="M50,950 L100,950 M50,950 L50,900" stroke="#bc13fe" fill="none"/>
            <path d="M950,950 L900,950 M950,950 L950,900" stroke="#bc13fe" fill="none"/>
            
            <text x="60" y="65">SCANNING_NEURAL_LINK...</text>
            <text x="60" y="80">QUANTUM_STABILITY: 98.4%</text>
            <text x="60" y="935">DEITY_CLASS: ANDROID ALPHA</text>
            <text x="800" y="935">REF_0x53D573</text>
        </g>
        
</svg>