<svg width="1000" height="1000" viewBox="0 0 1000 1000" xmlns="http://www.w3.org/2000/svg">
    <defs>
        
        <filter id="neonGlow" x="-50%" y="-50%" width="200%" height="200%">
            <feGaussianBlur stdDeviation="15" result="blur1" />
            <feGaussianBlur stdDeviation="30" result="blur2" />
            <feMerge>
                <feMergeNode in="blur2" />
                <feMergeNode in="blur1" />
                <feMergeNode in="SourceGraphic" />
            </feMerge>
        </filter>
        <filter id="microGlow" x="-20%" y="-20%" width="140%" height="140%">
            <feGaussianBlur stdDeviation="4" result="blur" />
            <feMerge>
                <feMergeNode in="blur" />
                <feMergeNode in="SourceGraphic" />
            </feMerge>
        </filter>
        <radialGradient id="auraGrad" cx="50%" cy="50%" r="50%">
            <stop offset="0%" stop-color="#bc13fe" stop-opacity="0.3"/>
            <stop offset="100%" stop-color="transparent" />
        </radialGradient>
        
    </defs>
    
    <!-- Atmosfera -->
    
        <rect width="1000" height="1000" fill="#050505" />
        <circle cx="500" cy="500" r="600" fill="url(#auraGrad)" opacity="0.5"/>
        <g><line x1="0" y1="0" x2="1000" y2="0" stroke="#bc13fe" stroke-width="0.5" opacity="0.05"/><line x1="0" y1="100" x2="1000" y2="100" stroke="#bc13fe" stroke-width="0.5" opacity="0.05"/><line x1="0" y1="200" x2="1000" y2="200" stroke="#bc13fe" stroke-width="0.5" opacity="0.05"/><line x1="0" y1="300" x2="1000" y2="300" stroke="#bc13fe" stroke-width="0.5" opacity="0.05"/><line x1="0" y1="400" x2="1000" y2="400" stroke="#bc13fe" stroke-width="0.5" opacity="0.05"/><line x1="0" y1="500" x2="1000" y2="500" stroke="#bc13fe" stroke-width="0.5" opacity="0.05"/><line x1="0" y1="600" x2="1000" y2="600" stroke="#bc13fe" stroke-width="0.5" opacity="0.05"/><line x1="0" y1="700" x2="1000" y2="700" stroke="#bc13fe" stroke-width="0.5" opacity="0.05"/><line x1="0" y1="800" x2="1000" y2="800" stroke="#bc13fe" stroke-width="0.5" opacity="0.05"/><line x1="0" y1="900" x2="1000" y2="900" stroke="#bc13fe" stroke-width="0.5" opacity="0.05"/><line x1="0" y1="1000" x2="1000" y2="1000" stroke="#bc13fe" stroke-width="0.5" opacity="0.05"/><line x1="0" y1="0" x2="0" y2="1000" stroke="#bc13fe" stroke-width="0.5" opacity="0.05"/><line x1="100" y1="0" x2="100" y2="1000" stroke="#bc13fe" stroke-width="0.5" opacity="0.05"/><line x1="200" y1="0" x2="200" y2="1000" stroke="#bc13fe" stroke-width="0.5" opacity="0.05"/><line x1="300" y1="0" x2="300" y2="1000" stroke="#bc13fe" stroke-width="0.5" opacity="0.05"/><line x1="400" y1="0" x2="400" y2="1000" stroke="#bc13fe" stroke-width="0.5" opacity="0.05"/><line x1="500" y1="0" x2="500" y2="1000" stroke="#bc13fe" stroke-width="0.5" opacity="0.05"/><line x1="600" y1="0" x2="600" y2="1000" stroke="#bc13fe" stroke-width="0.5" opacity="0.05"/><line x1="700" y1="0" x2="700" y2="1000" stroke="#bc13fe" stroke-width="0.5" opacity="0.05"/><line x1="800" y1="0" x2="800" y2="1000" stroke="#bc13fe" stroke-width="0.5" opacity="0.05"/><line x1="900" y1="0" x2="900" y2="1000" stroke="#bc13fe" stroke-width="0.5" opacity="0.05"/><line x1="1000" y1="0" x2="1000" y2="1000" stroke="#bc13fe" stroke-width="0.5" opacity="0.05"/></g>
        <g><circle cx="142" cy="422" r="0.07240798512692415" fill="#bc13fe" opacity="0.19108636389756609"> <animate attributeName="opacity" values="0.1;0.5;0.1" dur="6s" repeatCount="indefinite" /> </circle><circle cx="433" cy="208" r="1.0141757195635475" fill="#bc13fe" opacity="0.32508042808788973"> <animate attributeName="opacity" values="0.1;0.5;0.1" dur="6s" repeatCount="indefinite" /> </circle><circle cx="251" cy="623" r="0.7111986680408153" fill="#bc13fe" opacity="0.30177710577932126"> <animate attributeName="opacity" values="0.1;0.5;0.1" dur="4s" repeatCount="indefinite" /> </circle><circle cx="934" cy="885" r="0.3934770051706471" fill="#bc13fe" opacity="0.039428322602793386"> <animate attributeName="opacity" values="0.1;0.5;0.1" dur="7s" repeatCount="indefinite" /> </circle><circle cx="890" cy="453" r="0.8332500623635535" fill="#bc13fe" opacity="0.1937391480758439"> <animate attributeName="opacity" values="0.1;0.5;0.1" dur="6s" repeatCount="indefinite" /> </circle><circle cx="498" cy="518" r="1.965326832597859" fill="#bc13fe" opacity="0.0841714876556404"> <animate attributeName="opacity" values="0.1;0.5;0.1" dur="7s" repeatCount="indefinite" /> </circle><circle cx="762" cy="14" r="1.594787707139298" fill="#bc13fe" opacity="0.18716931239464457"> <animate attributeName="opacity" values="0.1;0.5;0.1" dur="7s" repeatCount="indefinite" /> </circle><circle cx="30" cy="789" r="1.2234106738118793" fill="#bc13fe" opacity="0.31200924514576545"> <animate attributeName="opacity" values="0.1;0.5;0.1" dur="5s" repeatCount="indefinite" /> </circle><circle cx="943" cy="202" r="0.9902852997984775" fill="#bc13fe" opacity="0.21002745232770925"> <animate attributeName="opacity" values="0.1;0.5;0.1" dur="3s" repeatCount="indefinite" /> </circle><circle cx="481" cy="724" r="0.12878271407915753" fill="#bc13fe" opacity="0.32434904922197494"> <animate attributeName="opacity" values="0.1;0.5;0.1" dur="7s" repeatCount="indefinite" /> </circle><circle cx="478" cy="332" r="0.8137804478308122" fill="#bc13fe" opacity="0.31023641222514775"> <animate attributeName="opacity" values="0.1;0.5;0.1" dur="6s" repeatCount="indefinite" /> </circle><circle cx="988" cy="154" r="0.34986610288878794" fill="#bc13fe" opacity="0.01589127912931243"> <animate attributeName="opacity" values="0.1;0.5;0.1" dur="3s" repeatCount="indefinite" /> </circle><circle cx="815" cy="823" r="0.369731700447389" fill="#bc13fe" opacity="0.23953072889263233"> <animate attributeName="opacity" values="0.1;0.5;0.1" dur="5s" repeatCount="indefinite" /> </circle><circle cx="324" cy="204" r="1.4911214789083858" fill="#bc13fe" opacity="0.12676047264686208"> <animate attributeName="opacity" values="0.1;0.5;0.1" dur="5s" repeatCount="indefinite" /> </circle><circle cx="80" cy="103" r="1.2510440529229296" fill="#bc13fe" opacity="0.17040459264499336"> <animate attributeName="opacity" values="0.1;0.5;0.1" dur="4s" repeatCount="indefinite" /> </circle><circle cx="22" cy="959" r="1.501639257102771" fill="#bc13fe" opacity="0.18919577828682096"> <animate attributeName="opacity" values="0.1;0.5;0.1" dur="6s" repeatCount="indefinite" /> </circle><circle cx="432" cy="504" r="0.7766476879771396" fill="#bc13fe" opacity="0.22371592353882463"> <animate attributeName="opacity" values="0.1;0.5;0.1" dur="6s" repeatCount="indefinite" /> </circle><circle cx="166" cy="655" r="0.09086642130554456" fill="#bc13fe" opacity="0.2548021859102691"> <animate attributeName="opacity" values="0.1;0.5;0.1" dur="7s" repeatCount="indefinite" /> </circle><circle cx="882" cy="541" r="0.913162850669275" fill="#bc13fe" opacity="0.01866336160506754"> <animate attributeName="opacity" values="0.1;0.5;0.1" dur="4s" repeatCount="indefinite" /> </circle><circle cx="806" cy="195" r="0.8696046178225989" fill="#bc13fe" opacity="0.11274582269091576"> <animate attributeName="opacity" values="0.1;0.5;0.1" dur="6s" repeatCount="indefinite" /> </circle><circle cx="335" cy="566" r="1.647774625517579" fill="#bc13fe" opacity="0.29595192790592323"> <animate attributeName="opacity" values="0.1;0.5;0.1" dur="5s" repeatCount="indefinite" /> </circle><circle cx="432" cy="624" r="1.8702795413948277" fill="#bc13fe" opacity="0.0716827137437726"> <animate attributeName="opacity" values="0.1;0.5;0.1" dur="5s" repeatCount="indefinite" /> </circle><circle cx="99" cy="853" r="1.519982868106068" fill="#bc13fe" opacity="0.33872291109940056"> <animate attributeName="opacity" values="0.1;0.5;0.1" dur="5s" repeatCount="indefinite" /> </circle><circle cx="374" cy="244" r="1.5369602550343877" fill="#bc13fe" opacity="0.13349789365079393"> <animate attributeName="opacity" values="0.1;0.5;0.1" dur="5s" repeatCount="indefinite" /> </circle><circle cx="154" cy="58" r="1.152237510522543" fill="#bc13fe" opacity="0.024310570894747575"> <animate attributeName="opacity" values="0.1;0.5;0.1" dur="6s" repeatCount="indefinite" /> </circle><circle cx="898" cy="145" r="0.6148571416679154" fill="#bc13fe" opacity="0.38944703361117894"> <animate attributeName="opacity" values="0.1;0.5;0.1" dur="7s" repeatCount="indefinite" /> </circle><circle cx="971" cy="212" r="1.499939115982178" fill="#bc13fe" opacity="0.3033256388314552"> <animate attributeName="opacity" values="0.1;0.5;0.1" dur="5s" repeatCount="indefinite" /> </circle><circle cx="466" cy="978" r="0.047910148982441614" fill="#bc13fe" opacity="0.01590836703993843"> <animate attributeName="opacity" values="0.1;0.5;0.1" dur="3s" repeatCount="indefinite" /> </circle><circle cx="232" cy="921" r="1.3070592992525707" fill="#bc13fe" opacity="0.394327067485014"> <animate attributeName="opacity" values="0.1;0.5;0.1" dur="7s" repeatCount="indefinite" /> </circle><circle cx="667" cy="826" r="0.269530848348142" fill="#bc13fe" opacity="0.2746765576531102"> <animate attributeName="opacity" values="0.1;0.5;0.1" dur="7s" repeatCount="indefinite" /> </circle><circle cx="149" cy="96" r="1.344944393301215" fill="#bc13fe" opacity="0.028700948207195067"> <animate attributeName="opacity" values="0.1;0.5;0.1" dur="3s" repeatCount="indefinite" /> </circle><circle cx="120" cy="897" r="0.779206171188281" fill="#bc13fe" opacity="0.16878286819764315"> <animate attributeName="opacity" values="0.1;0.5;0.1" dur="3s" repeatCount="indefinite" /> </circle><circle cx="315" cy="194" r="0.6340606005052087" fill="#bc13fe" opacity="0.2316844455364998"> <animate attributeName="opacity" values="0.1;0.5;0.1" dur="5s" repeatCount="indefinite" /> </circle><circle cx="792" cy="447" r="0.34825283330030254" fill="#bc13fe" opacity="0.007420731152224702"> <animate attributeName="opacity" values="0.1;0.5;0.1" dur="3s" repeatCount="indefinite" /> </circle><circle cx="798" cy="257" r="0.9378908857320527" fill="#bc13fe" opacity="0.03887145140096951"> <animate attributeName="opacity" values="0.1;0.5;0.1" dur="5s" repeatCount="indefinite" /> </circle><circle cx="939" cy="251" r="0.6528599296594604" fill="#bc13fe" opacity="0.0072101262392822996"> <animate attributeName="opacity" values="0.1;0.5;0.1" dur="3s" repeatCount="indefinite" /> </circle><circle cx="574" cy="809" r="0.055897108173498244" fill="#bc13fe" opacity="0.24079969202799945"> <animate attributeName="opacity" values="0.1;0.5;0.1" dur="3s" repeatCount="indefinite" /> </circle><circle cx="555" cy="789" r="1.5744594537624754" fill="#bc13fe" opacity="0.29943759256831076"> <animate attributeName="opacity" values="0.1;0.5;0.1" dur="6s" repeatCount="indefinite" /> </circle><circle cx="495" cy="873" r="0.3822929425500723" fill="#bc13fe" opacity="0.25041897987488976"> <animate attributeName="opacity" values="0.1;0.5;0.1" dur="5s" repeatCount="indefinite" /> </circle><circle cx="911" cy="759" r="1.8444280680918217" fill="#bc13fe" opacity="0.19315242323109502"> <animate attributeName="opacity" values="0.1;0.5;0.1" dur="4s" repeatCount="indefinite" /> </circle><circle cx="211" cy="494" r="1.539263073633757" fill="#bc13fe" opacity="0.22402104500757974"> <animate attributeName="opacity" values="0.1;0.5;0.1" dur="7s" repeatCount="indefinite" /> </circle><circle cx="185" cy="84" r="1.3107618466915583" fill="#bc13fe" opacity="0.050443965231935596"> <animate attributeName="opacity" values="0.1;0.5;0.1" dur="3s" repeatCount="indefinite" /> </circle><circle cx="251" cy="788" r="1.2904949204007001" fill="#bc13fe" opacity="0.10459410081815022"> <animate attributeName="opacity" values="0.1;0.5;0.1" dur="4s" repeatCount="indefinite" /> </circle><circle cx="219" cy="889" r="1.6456882080669546" fill="#bc13fe" opacity="0.10069940752235268"> <animate attributeName="opacity" values="0.1;0.5;0.1" dur="5s" repeatCount="indefinite" /> </circle><circle cx="836" cy="263" r="1.3038167511024383" fill="#bc13fe" opacity="0.08452277555407868"> <animate attributeName="opacity" values="0.1;0.5;0.1" dur="6s" repeatCount="indefinite" /> </circle><circle cx="767" cy="662" r="1.3763769634609595" fill="#bc13fe" opacity="0.2832961492598152"> <animate attributeName="opacity" values="0.1;0.5;0.1" dur="3s" repeatCount="indefinite" /> </circle><circle cx="249" cy="890" r="0.5516482644551104" fill="#bc13fe" opacity="0.021111058357064484"> <animate attributeName="opacity" values="0.1;0.5;0.1" dur="7s" repeatCount="indefinite" /> </circle><circle cx="890" cy="100" r="0.13755465674341294" fill="#bc13fe" opacity="0.31516492893600706"> <animate attributeName="opacity" values="0.1;0.5;0.1" dur="3s" repeatCount="indefinite" /> </circle><circle cx="763" cy="315" r="0.5765655858996748" fill="#bc13fe" opacity="0.17739436835027586"> <animate attributeName="opacity" values="0.1;0.5;0.1" dur="7s" repeatCount="indefinite" /> </circle><circle cx="726" cy="180" r="0.08757074372429563" fill="#bc13fe" opacity="0.2002531057322513"> <animate attributeName="opacity" values="0.1;0.5;0.1" dur="7s" repeatCount="indefinite" /> </circle></g>
        
    
    <!-- Entidad Quantum -->
    <g transform="translate(100, 100) scale(0.8)">
        
        <g filter="url(#neonGlow)">
            <path d="M280,650 Q150,550 200,300 Q250,100 500,100 Q750,100 800,400 Q850,700 700,850" fill="none" stroke="#bc13fe" stroke-width="4" stroke-dasharray="10,5" opacity="0.4" />
            <path d="M280,850 C280,700 300,550 450,450 C550,380 650,400 700,500 C730,580 720,620 680,680 C640,740 600,750 580,800 C560,850 580,920 620,1000" fill="none" stroke="#bc13fe" stroke-width="8" opacity="0.8" />
            <path d="M280,850 C280,700 300,550 450,450 C550,380 650,400 700,500 C730,580 720,620 680,680 C640,740 600,750 580,800 C560,850 580,920 620,1000" fill="none" stroke="#bc13fe" stroke-width="2" />
        </g>
        <g><circle cx="550" cy="520" r="15" fill="none" stroke="#bc13fe" stroke-width="2" filter="url(#microGlow)"/> <path d="M530,520 L570,520 M550,500 L550,540" stroke="#bc13fe" stroke-width="1"/></g>
        <g><circle cx="497" cy="601" r="4" fill="#bc13fe" filter="url(#microGlow)"/><circle cx="570" cy="590" r="4" fill="#bc13fe" filter="url(#microGlow)"/></g>
        <g><path d="M434,664 h30 v30" fill="none" stroke="#bc13fe" stroke-width="0.8" opacity="0.6"/><path d="M364,498 h30 v30" fill="none" stroke="#bc13fe" stroke-width="0.8" opacity="0.6"/><path d="M414,671 h30 v30" fill="none" stroke="#bc13fe" stroke-width="0.8" opacity="0.6"/><path d="M663,375 h30 v30" fill="none" stroke="#bc13fe" stroke-width="0.8" opacity="0.6"/></g>
        
    </g>
    
    <!-- HUD Layer -->
    
        <g font-family="monospace" font-size="10" fill="#bc13fe" opacity="0.7">
            <!-- Esquinas -->
            <path d="M50,50 L100,50 M50,50 L50,100" stroke="#bc13fe" fill="none"/>
            <path d="M950,50 L900,50 M950,50 L950,100" stroke="#bc13fe" fill="none"/>
            <path d="M50,950 L100,950 M50,950 L50,900" stroke="#bc13fe" fill="none"/>
            <path d="M950,950 L900,950 M950,950 L950,900" stroke="#bc13fe" fill="none"/>
            
            <text x="60" y="65">SCANNING_NEURAL_LINK...</text>
            <text x="60" y="80">QUANTUM_STABILITY: 98.4%</text>
            <text x="60" y="935">DEITY_CLASS: CYBER MUSE</text>
            <text x="800" y="935">REF_0x62344B</text>
        </g>
        
</svg>