<svg width="1000" height="1000" viewBox="0 0 1000 1000" xmlns="http://www.w3.org/2000/svg">
    <defs>
        
        <filter id="neonGlow" x="-50%" y="-50%" width="200%" height="200%">
            <feGaussianBlur stdDeviation="15" result="blur1" />
            <feGaussianBlur stdDeviation="30" result="blur2" />
            <feMerge>
                <feMergeNode in="blur2" />
                <feMergeNode in="blur1" />
                <feMergeNode in="SourceGraphic" />
            </feMerge>
        </filter>
        <filter id="microGlow" x="-20%" y="-20%" width="140%" height="140%">
            <feGaussianBlur stdDeviation="4" result="blur" />
            <feMerge>
                <feMergeNode in="blur" />
                <feMergeNode in="SourceGraphic" />
            </feMerge>
        </filter>
        <radialGradient id="auraGrad" cx="50%" cy="50%" r="50%">
            <stop offset="0%" stop-color="#ff8c00" stop-opacity="0.3"/>
            <stop offset="100%" stop-color="transparent" />
        </radialGradient>
        
    </defs>
    
    <!-- Atmosfera -->
    
        <rect width="1000" height="1000" fill="#050505" />
        <circle cx="500" cy="500" r="600" fill="url(#auraGrad)" opacity="0.5"/>
        <g><line x1="0" y1="0" x2="1000" y2="0" stroke="#ff8c00" stroke-width="0.5" opacity="0.05"/><line x1="0" y1="100" x2="1000" y2="100" stroke="#ff8c00" stroke-width="0.5" opacity="0.05"/><line x1="0" y1="200" x2="1000" y2="200" stroke="#ff8c00" stroke-width="0.5" opacity="0.05"/><line x1="0" y1="300" x2="1000" y2="300" stroke="#ff8c00" stroke-width="0.5" opacity="0.05"/><line x1="0" y1="400" x2="1000" y2="400" stroke="#ff8c00" stroke-width="0.5" opacity="0.05"/><line x1="0" y1="500" x2="1000" y2="500" stroke="#ff8c00" stroke-width="0.5" opacity="0.05"/><line x1="0" y1="600" x2="1000" y2="600" stroke="#ff8c00" stroke-width="0.5" opacity="0.05"/><line x1="0" y1="700" x2="1000" y2="700" stroke="#ff8c00" stroke-width="0.5" opacity="0.05"/><line x1="0" y1="800" x2="1000" y2="800" stroke="#ff8c00" stroke-width="0.5" opacity="0.05"/><line x1="0" y1="900" x2="1000" y2="900" stroke="#ff8c00" stroke-width="0.5" opacity="0.05"/><line x1="0" y1="1000" x2="1000" y2="1000" stroke="#ff8c00" stroke-width="0.5" opacity="0.05"/><line x1="0" y1="0" x2="0" y2="1000" stroke="#ff8c00" stroke-width="0.5" opacity="0.05"/><line x1="100" y1="0" x2="100" y2="1000" stroke="#ff8c00" stroke-width="0.5" opacity="0.05"/><line x1="200" y1="0" x2="200" y2="1000" stroke="#ff8c00" stroke-width="0.5" opacity="0.05"/><line x1="300" y1="0" x2="300" y2="1000" stroke="#ff8c00" stroke-width="0.5" opacity="0.05"/><line x1="400" y1="0" x2="400" y2="1000" stroke="#ff8c00" stroke-width="0.5" opacity="0.05"/><line x1="500" y1="0" x2="500" y2="1000" stroke="#ff8c00" stroke-width="0.5" opacity="0.05"/><line x1="600" y1="0" x2="600" y2="1000" stroke="#ff8c00" stroke-width="0.5" opacity="0.05"/><line x1="700" y1="0" x2="700" y2="1000" stroke="#ff8c00" stroke-width="0.5" opacity="0.05"/><line x1="800" y1="0" x2="800" y2="1000" stroke="#ff8c00" stroke-width="0.5" opacity="0.05"/><line x1="900" y1="0" x2="900" y2="1000" stroke="#ff8c00" stroke-width="0.5" opacity="0.05"/><line x1="1000" y1="0" x2="1000" y2="1000" stroke="#ff8c00" stroke-width="0.5" opacity="0.05"/></g>
        <g><circle cx="54" cy="406" r="0.0354252843589451" fill="#ff8c00" opacity="0.08739362239475948"> <animate attributeName="opacity" values="0.1;0.5;0.1" dur="6s" repeatCount="indefinite" /> </circle><circle cx="750" cy="744" r="0.1607313591509647" fill="#ff8c00" opacity="0.18571756534697703"> <animate attributeName="opacity" values="0.1;0.5;0.1" dur="4s" repeatCount="indefinite" /> </circle><circle cx="769" cy="452" r="1.7408810908729901" fill="#ff8c00" opacity="0.07497227052204684"> <animate attributeName="opacity" values="0.1;0.5;0.1" dur="4s" repeatCount="indefinite" /> </circle><circle cx="998" cy="952" r="1.9957625806697437" fill="#ff8c00" opacity="0.27563622944383787"> <animate attributeName="opacity" values="0.1;0.5;0.1" dur="5s" repeatCount="indefinite" /> </circle><circle cx="424" cy="748" r="0.8337222090765284" fill="#ff8c00" opacity="0.0766170351492852"> <animate attributeName="opacity" values="0.1;0.5;0.1" dur="5s" repeatCount="indefinite" /> </circle><circle cx="615" cy="312" r="0.13876011698631596" fill="#ff8c00" opacity="0.007519625117471219"> <animate attributeName="opacity" values="0.1;0.5;0.1" dur="3s" repeatCount="indefinite" /> </circle><circle cx="323" cy="828" r="0.31657919719276784" fill="#ff8c00" opacity="0.046912083091260874"> <animate attributeName="opacity" values="0.1;0.5;0.1" dur="7s" repeatCount="indefinite" /> </circle><circle cx="358" cy="301" r="0.9524372392877232" fill="#ff8c00" opacity="0.00708409922353428"> <animate attributeName="opacity" values="0.1;0.5;0.1" dur="5s" repeatCount="indefinite" /> </circle><circle cx="513" cy="383" r="1.5052863279577315" fill="#ff8c00" opacity="0.3827217853806854"> <animate attributeName="opacity" values="0.1;0.5;0.1" dur="3s" repeatCount="indefinite" /> </circle><circle cx="653" cy="123" r="1.533506874484782" fill="#ff8c00" opacity="0.33512069062992916"> <animate attributeName="opacity" values="0.1;0.5;0.1" dur="3s" repeatCount="indefinite" /> </circle><circle cx="176" cy="160" r="0.23716911017894393" fill="#ff8c00" opacity="0.07438998448427432"> <animate attributeName="opacity" values="0.1;0.5;0.1" dur="7s" repeatCount="indefinite" /> </circle><circle cx="763" cy="676" r="1.9693624620864205" fill="#ff8c00" opacity="0.0731608606284123"> <animate attributeName="opacity" values="0.1;0.5;0.1" dur="7s" repeatCount="indefinite" /> </circle><circle cx="504" cy="279" r="1.6012010206507263" fill="#ff8c00" opacity="0.38844054777325004"> <animate attributeName="opacity" values="0.1;0.5;0.1" dur="4s" repeatCount="indefinite" /> </circle><circle cx="935" cy="826" r="1.8771671186252004" fill="#ff8c00" opacity="0.3780385536312618"> <animate attributeName="opacity" values="0.1;0.5;0.1" dur="7s" repeatCount="indefinite" /> </circle><circle cx="83" cy="12" r="0.5175638066301491" fill="#ff8c00" opacity="0.2600087618543642"> <animate attributeName="opacity" values="0.1;0.5;0.1" dur="6s" repeatCount="indefinite" /> </circle><circle cx="850" cy="998" r="0.3850864196765027" fill="#ff8c00" opacity="0.3813350393503049"> <animate attributeName="opacity" values="0.1;0.5;0.1" dur="3s" repeatCount="indefinite" /> </circle><circle cx="549" cy="778" r="1.1499486021638954" fill="#ff8c00" opacity="0.2658723892837925"> <animate attributeName="opacity" values="0.1;0.5;0.1" dur="7s" repeatCount="indefinite" /> </circle><circle cx="873" cy="889" r="1.9299976930307932" fill="#ff8c00" opacity="0.3769256206502272"> <animate attributeName="opacity" values="0.1;0.5;0.1" dur="5s" repeatCount="indefinite" /> </circle><circle cx="466" cy="9" r="1.8670202325570127" fill="#ff8c00" opacity="0.28009612201816214"> <animate attributeName="opacity" values="0.1;0.5;0.1" dur="6s" repeatCount="indefinite" /> </circle><circle cx="10" cy="337" r="1.753921219445113" fill="#ff8c00" opacity="0.06601785452242802"> <animate attributeName="opacity" values="0.1;0.5;0.1" dur="7s" repeatCount="indefinite" /> </circle><circle cx="893" cy="264" r="0.339523408962658" fill="#ff8c00" opacity="0.03447630951791374"> <animate attributeName="opacity" values="0.1;0.5;0.1" dur="7s" repeatCount="indefinite" /> </circle><circle cx="572" cy="260" r="1.5548982419092858" fill="#ff8c00" opacity="0.26218422680590353"> <animate attributeName="opacity" values="0.1;0.5;0.1" dur="7s" repeatCount="indefinite" /> </circle><circle cx="537" cy="444" r="0.6568106495053958" fill="#ff8c00" opacity="0.14876523224728114"> <animate attributeName="opacity" values="0.1;0.5;0.1" dur="6s" repeatCount="indefinite" /> </circle><circle cx="475" cy="949" r="0.8361900796779691" fill="#ff8c00" opacity="0.15320700236076173"> <animate attributeName="opacity" values="0.1;0.5;0.1" dur="4s" repeatCount="indefinite" /> </circle><circle cx="957" cy="697" r="0.0743161528823193" fill="#ff8c00" opacity="0.25320965227637965"> <animate attributeName="opacity" values="0.1;0.5;0.1" dur="3s" repeatCount="indefinite" /> </circle><circle cx="817" cy="249" r="0.8506220834261213" fill="#ff8c00" opacity="0.256468795089453"> <animate attributeName="opacity" values="0.1;0.5;0.1" dur="6s" repeatCount="indefinite" /> </circle><circle cx="607" cy="916" r="1.5237500227676752" fill="#ff8c00" opacity="0.021671458265745704"> <animate attributeName="opacity" values="0.1;0.5;0.1" dur="4s" repeatCount="indefinite" /> </circle><circle cx="466" cy="939" r="0.2520723658548667" fill="#ff8c00" opacity="0.05367242652570314"> <animate attributeName="opacity" values="0.1;0.5;0.1" dur="7s" repeatCount="indefinite" /> </circle><circle cx="914" cy="875" r="1.4896198645548857" fill="#ff8c00" opacity="0.27865719813771106"> <animate attributeName="opacity" values="0.1;0.5;0.1" dur="4s" repeatCount="indefinite" /> </circle><circle cx="572" cy="625" r="0.34838158654577556" fill="#ff8c00" opacity="0.3581526018537221"> <animate attributeName="opacity" values="0.1;0.5;0.1" dur="4s" repeatCount="indefinite" /> </circle><circle cx="261" cy="327" r="1.8868648362323452" fill="#ff8c00" opacity="0.1564481996109866"> <animate attributeName="opacity" values="0.1;0.5;0.1" dur="7s" repeatCount="indefinite" /> </circle><circle cx="325" cy="1000" r="1.2290907784298821" fill="#ff8c00" opacity="0.3320188925423534"> <animate attributeName="opacity" values="0.1;0.5;0.1" dur="4s" repeatCount="indefinite" /> </circle><circle cx="601" cy="128" r="0.8967301428809982" fill="#ff8c00" opacity="0.38522700807371635"> <animate attributeName="opacity" values="0.1;0.5;0.1" dur="5s" repeatCount="indefinite" /> </circle><circle cx="24" cy="741" r="0.5302738154888347" fill="#ff8c00" opacity="0.012617121594271731"> <animate attributeName="opacity" values="0.1;0.5;0.1" dur="4s" repeatCount="indefinite" /> </circle><circle cx="803" cy="77" r="0.21431792806690586" fill="#ff8c00" opacity="0.02555297016504965"> <animate attributeName="opacity" values="0.1;0.5;0.1" dur="7s" repeatCount="indefinite" /> </circle><circle cx="845" cy="674" r="0.6282888249342145" fill="#ff8c00" opacity="0.3514690867007632"> <animate attributeName="opacity" values="0.1;0.5;0.1" dur="3s" repeatCount="indefinite" /> </circle><circle cx="775" cy="943" r="1.7050960461021" fill="#ff8c00" opacity="0.08845252100005802"> <animate attributeName="opacity" values="0.1;0.5;0.1" dur="6s" repeatCount="indefinite" /> </circle><circle cx="794" cy="649" r="0.6938986443995743" fill="#ff8c00" opacity="0.2998515466724852"> <animate attributeName="opacity" values="0.1;0.5;0.1" dur="4s" repeatCount="indefinite" /> </circle><circle cx="166" cy="305" r="1.230202149266468" fill="#ff8c00" opacity="0.003543856326188655"> <animate attributeName="opacity" values="0.1;0.5;0.1" dur="5s" repeatCount="indefinite" /> </circle><circle cx="463" cy="746" r="1.8459743365876824" fill="#ff8c00" opacity="0.02677642995506351"> <animate attributeName="opacity" values="0.1;0.5;0.1" dur="6s" repeatCount="indefinite" /> </circle><circle cx="538" cy="192" r="1.2086380788231856" fill="#ff8c00" opacity="0.13426697958781425"> <animate attributeName="opacity" values="0.1;0.5;0.1" dur="6s" repeatCount="indefinite" /> </circle><circle cx="706" cy="880" r="0.2594667350320039" fill="#ff8c00" opacity="0.2470745675916041"> <animate attributeName="opacity" values="0.1;0.5;0.1" dur="3s" repeatCount="indefinite" /> </circle><circle cx="26" cy="987" r="0.11030730854799531" fill="#ff8c00" opacity="0.22216631851783572"> <animate attributeName="opacity" values="0.1;0.5;0.1" dur="6s" repeatCount="indefinite" /> </circle><circle cx="765" cy="427" r="1.2527656704632524" fill="#ff8c00" opacity="0.03936557256600879"> <animate attributeName="opacity" values="0.1;0.5;0.1" dur="4s" repeatCount="indefinite" /> </circle><circle cx="713" cy="243" r="0.34988888173816957" fill="#ff8c00" opacity="0.22922989233426883"> <animate attributeName="opacity" values="0.1;0.5;0.1" dur="3s" repeatCount="indefinite" /> </circle><circle cx="646" cy="287" r="0.4196308587377897" fill="#ff8c00" opacity="0.3767303646037683"> <animate attributeName="opacity" values="0.1;0.5;0.1" dur="4s" repeatCount="indefinite" /> </circle><circle cx="696" cy="72" r="0.3417311347567846" fill="#ff8c00" opacity="0.2805548116355576"> <animate attributeName="opacity" values="0.1;0.5;0.1" dur="5s" repeatCount="indefinite" /> </circle><circle cx="229" cy="845" r="0.9699072591891418" fill="#ff8c00" opacity="0.06962297020446036"> <animate attributeName="opacity" values="0.1;0.5;0.1" dur="5s" repeatCount="indefinite" /> </circle><circle cx="429" cy="439" r="0.5309278595226388" fill="#ff8c00" opacity="0.3261962861005096"> <animate attributeName="opacity" values="0.1;0.5;0.1" dur="3s" repeatCount="indefinite" /> </circle><circle cx="51" cy="260" r="0.5352282921021445" fill="#ff8c00" opacity="0.3485323650329222"> <animate attributeName="opacity" values="0.1;0.5;0.1" dur="5s" repeatCount="indefinite" /> </circle></g>
        
    
    <!-- Entidad Quantum -->
    <g transform="translate(100, 100) scale(0.8)">
        
        <g filter="url(#neonGlow)">
            <path d="M280,650 Q150,550 200,300 Q250,100 500,100 Q750,100 800,400 Q850,700 700,850" fill="none" stroke="#ff8c00" stroke-width="4" stroke-dasharray="10,5" opacity="0.4" />
            <path d="M280,850 C280,700 300,550 450,450 C550,380 650,400 700,500 C730,580 720,620 680,680 C640,740 600,750 580,800 C560,850 580,920 620,1000" fill="none" stroke="#ff8c00" stroke-width="8" opacity="0.8" />
            <path d="M280,850 C280,700 300,550 450,450 C550,380 650,400 700,500 C730,580 720,620 680,680 C640,740 600,750 580,800 C560,850 580,920 620,1000" fill="none" stroke="#ff8c00" stroke-width="2" />
        </g>
        <g><circle cx="550" cy="520" r="15" fill="none" stroke="#ff8c00" stroke-width="2" filter="url(#microGlow)"/> <path d="M530,520 L570,520 M550,500 L550,540" stroke="#ff8c00" stroke-width="1"/></g>
        <g><circle cx="486" cy="782" r="5" fill="#ff8c00" filter="url(#microGlow)"/><circle cx="489" cy="626" r="2" fill="#ff8c00" filter="url(#microGlow)"/></g>
        <g><path d="M454,284 h30 v30" fill="none" stroke="#ff8c00" stroke-width="0.8" opacity="0.6"/><path d="M610,455 h30 v30" fill="none" stroke="#ff8c00" stroke-width="0.8" opacity="0.6"/><path d="M567,308 h30 v30" fill="none" stroke="#ff8c00" stroke-width="0.8" opacity="0.6"/><path d="M583,585 h30 v30" fill="none" stroke="#ff8c00" stroke-width="0.8" opacity="0.6"/></g>
        
    </g>
    
    <!-- HUD Layer -->
    
        <g font-family="monospace" font-size="10" fill="#ff8c00" opacity="0.7">
            <!-- Esquinas -->
            <path d="M50,50 L100,50 M50,50 L50,100" stroke="#ff8c00" fill="none"/>
            <path d="M950,50 L900,50 M950,50 L950,100" stroke="#ff8c00" fill="none"/>
            <path d="M50,950 L100,950 M50,950 L50,900" stroke="#ff8c00" fill="none"/>
            <path d="M950,950 L900,950 M950,950 L950,900" stroke="#ff8c00" fill="none"/>
            
            <text x="60" y="65">SCANNING_NEURAL_LINK...</text>
            <text x="60" y="80">QUANTUM_STABILITY: 98.4%</text>
            <text x="60" y="935">DEITY_CLASS: CYBER MUSE</text>
            <text x="800" y="935">REF_0x71E6AE</text>
        </g>
        
</svg>