<svg width="1000" height="1000" viewBox="0 0 1000 1000" xmlns="http://www.w3.org/2000/svg">
    <defs>
        
        <filter id="neonGlow" x="-50%" y="-50%" width="200%" height="200%">
            <feGaussianBlur stdDeviation="15" result="blur1" />
            <feGaussianBlur stdDeviation="30" result="blur2" />
            <feMerge>
                <feMergeNode in="blur2" />
                <feMergeNode in="blur1" />
                <feMergeNode in="SourceGraphic" />
            </feMerge>
        </filter>
        <filter id="microGlow" x="-20%" y="-20%" width="140%" height="140%">
            <feGaussianBlur stdDeviation="4" result="blur" />
            <feMerge>
                <feMergeNode in="blur" />
                <feMergeNode in="SourceGraphic" />
            </feMerge>
        </filter>
        <radialGradient id="auraGrad" cx="50%" cy="50%" r="50%">
            <stop offset="0%" stop-color="#bc13fe" stop-opacity="0.3"/>
            <stop offset="100%" stop-color="transparent" />
        </radialGradient>
        
    </defs>
    
    <!-- Atmosfera -->
    
        <rect width="1000" height="1000" fill="#050505" />
        <circle cx="500" cy="500" r="600" fill="url(#auraGrad)" opacity="0.5"/>
        <g><line x1="0" y1="0" x2="1000" y2="0" stroke="#bc13fe" stroke-width="0.5" opacity="0.05"/><line x1="0" y1="100" x2="1000" y2="100" stroke="#bc13fe" stroke-width="0.5" opacity="0.05"/><line x1="0" y1="200" x2="1000" y2="200" stroke="#bc13fe" stroke-width="0.5" opacity="0.05"/><line x1="0" y1="300" x2="1000" y2="300" stroke="#bc13fe" stroke-width="0.5" opacity="0.05"/><line x1="0" y1="400" x2="1000" y2="400" stroke="#bc13fe" stroke-width="0.5" opacity="0.05"/><line x1="0" y1="500" x2="1000" y2="500" stroke="#bc13fe" stroke-width="0.5" opacity="0.05"/><line x1="0" y1="600" x2="1000" y2="600" stroke="#bc13fe" stroke-width="0.5" opacity="0.05"/><line x1="0" y1="700" x2="1000" y2="700" stroke="#bc13fe" stroke-width="0.5" opacity="0.05"/><line x1="0" y1="800" x2="1000" y2="800" stroke="#bc13fe" stroke-width="0.5" opacity="0.05"/><line x1="0" y1="900" x2="1000" y2="900" stroke="#bc13fe" stroke-width="0.5" opacity="0.05"/><line x1="0" y1="1000" x2="1000" y2="1000" stroke="#bc13fe" stroke-width="0.5" opacity="0.05"/><line x1="0" y1="0" x2="0" y2="1000" stroke="#bc13fe" stroke-width="0.5" opacity="0.05"/><line x1="100" y1="0" x2="100" y2="1000" stroke="#bc13fe" stroke-width="0.5" opacity="0.05"/><line x1="200" y1="0" x2="200" y2="1000" stroke="#bc13fe" stroke-width="0.5" opacity="0.05"/><line x1="300" y1="0" x2="300" y2="1000" stroke="#bc13fe" stroke-width="0.5" opacity="0.05"/><line x1="400" y1="0" x2="400" y2="1000" stroke="#bc13fe" stroke-width="0.5" opacity="0.05"/><line x1="500" y1="0" x2="500" y2="1000" stroke="#bc13fe" stroke-width="0.5" opacity="0.05"/><line x1="600" y1="0" x2="600" y2="1000" stroke="#bc13fe" stroke-width="0.5" opacity="0.05"/><line x1="700" y1="0" x2="700" y2="1000" stroke="#bc13fe" stroke-width="0.5" opacity="0.05"/><line x1="800" y1="0" x2="800" y2="1000" stroke="#bc13fe" stroke-width="0.5" opacity="0.05"/><line x1="900" y1="0" x2="900" y2="1000" stroke="#bc13fe" stroke-width="0.5" opacity="0.05"/><line x1="1000" y1="0" x2="1000" y2="1000" stroke="#bc13fe" stroke-width="0.5" opacity="0.05"/></g>
        <g><circle cx="649" cy="327" r="0.21925325861185563" fill="#bc13fe" opacity="0.16471188175284787"> <animate attributeName="opacity" values="0.1;0.5;0.1" dur="6s" repeatCount="indefinite" /> </circle><circle cx="910" cy="616" r="0.45539497387872396" fill="#bc13fe" opacity="0.3227155532891346"> <animate attributeName="opacity" values="0.1;0.5;0.1" dur="7s" repeatCount="indefinite" /> </circle><circle cx="505" cy="797" r="1.008549076545414" fill="#bc13fe" opacity="0.3968267520743055"> <animate attributeName="opacity" values="0.1;0.5;0.1" dur="3s" repeatCount="indefinite" /> </circle><circle cx="941" cy="812" r="1.9789034248850164" fill="#bc13fe" opacity="0.2218876829116205"> <animate attributeName="opacity" values="0.1;0.5;0.1" dur="5s" repeatCount="indefinite" /> </circle><circle cx="106" cy="297" r="1.7558979716986451" fill="#bc13fe" opacity="0.3250810697692726"> <animate attributeName="opacity" values="0.1;0.5;0.1" dur="5s" repeatCount="indefinite" /> </circle><circle cx="258" cy="59" r="0.5565136847693175" fill="#bc13fe" opacity="0.38365104462339744"> <animate attributeName="opacity" values="0.1;0.5;0.1" dur="4s" repeatCount="indefinite" /> </circle><circle cx="697" cy="953" r="0.2828853542339027" fill="#bc13fe" opacity="0.30870784632520815"> <animate attributeName="opacity" values="0.1;0.5;0.1" dur="3s" repeatCount="indefinite" /> </circle><circle cx="512" cy="672" r="1.7501216387157665" fill="#bc13fe" opacity="0.07697553861585385"> <animate attributeName="opacity" values="0.1;0.5;0.1" dur="6s" repeatCount="indefinite" /> </circle><circle cx="762" cy="160" r="1.067114127873182" fill="#bc13fe" opacity="0.1474231726041142"> <animate attributeName="opacity" values="0.1;0.5;0.1" dur="6s" repeatCount="indefinite" /> </circle><circle cx="415" cy="746" r="0.8986777112123718" fill="#bc13fe" opacity="0.20136152735446478"> <animate attributeName="opacity" values="0.1;0.5;0.1" dur="3s" repeatCount="indefinite" /> </circle><circle cx="69" cy="548" r="1.8568953871856977" fill="#bc13fe" opacity="0.008147269948558212"> <animate attributeName="opacity" values="0.1;0.5;0.1" dur="7s" repeatCount="indefinite" /> </circle><circle cx="336" cy="142" r="1.7037394833093171" fill="#bc13fe" opacity="0.35153328429030384"> <animate attributeName="opacity" values="0.1;0.5;0.1" dur="7s" repeatCount="indefinite" /> </circle><circle cx="426" cy="387" r="0.30291234774073583" fill="#bc13fe" opacity="0.29785376722085005"> <animate attributeName="opacity" values="0.1;0.5;0.1" dur="3s" repeatCount="indefinite" /> </circle><circle cx="445" cy="981" r="0.806976720792866" fill="#bc13fe" opacity="0.12866546640513807"> <animate attributeName="opacity" values="0.1;0.5;0.1" dur="5s" repeatCount="indefinite" /> </circle><circle cx="770" cy="996" r="0.19857878467146928" fill="#bc13fe" opacity="0.30436331077172674"> <animate attributeName="opacity" values="0.1;0.5;0.1" dur="4s" repeatCount="indefinite" /> </circle><circle cx="897" cy="593" r="0.4399361210956696" fill="#bc13fe" opacity="0.20490668794998612"> <animate attributeName="opacity" values="0.1;0.5;0.1" dur="7s" repeatCount="indefinite" /> </circle><circle cx="947" cy="533" r="0.6652225046703004" fill="#bc13fe" opacity="0.1681913919739663"> <animate attributeName="opacity" values="0.1;0.5;0.1" dur="5s" repeatCount="indefinite" /> </circle><circle cx="941" cy="461" r="0.6690291724669384" fill="#bc13fe" opacity="0.21498018383161904"> <animate attributeName="opacity" values="0.1;0.5;0.1" dur="6s" repeatCount="indefinite" /> </circle><circle cx="484" cy="301" r="1.4363024207440624" fill="#bc13fe" opacity="0.18072359551436754"> <animate attributeName="opacity" values="0.1;0.5;0.1" dur="4s" repeatCount="indefinite" /> </circle><circle cx="215" cy="514" r="1.2539228880838074" fill="#bc13fe" opacity="0.3980658151079308"> <animate attributeName="opacity" values="0.1;0.5;0.1" dur="7s" repeatCount="indefinite" /> </circle><circle cx="259" cy="971" r="0.9395543188113626" fill="#bc13fe" opacity="0.20361498315410187"> <animate attributeName="opacity" values="0.1;0.5;0.1" dur="6s" repeatCount="indefinite" /> </circle><circle cx="298" cy="205" r="1.4033882467555878" fill="#bc13fe" opacity="0.10672084297116574"> <animate attributeName="opacity" values="0.1;0.5;0.1" dur="6s" repeatCount="indefinite" /> </circle><circle cx="104" cy="626" r="0.8378345640326474" fill="#bc13fe" opacity="0.10242409000486014"> <animate attributeName="opacity" values="0.1;0.5;0.1" dur="6s" repeatCount="indefinite" /> </circle><circle cx="536" cy="830" r="1.0295431091782576" fill="#bc13fe" opacity="0.022620059429178864"> <animate attributeName="opacity" values="0.1;0.5;0.1" dur="4s" repeatCount="indefinite" /> </circle><circle cx="831" cy="158" r="1.4626998859969063" fill="#bc13fe" opacity="0.02039441214646418"> <animate attributeName="opacity" values="0.1;0.5;0.1" dur="7s" repeatCount="indefinite" /> </circle><circle cx="48" cy="298" r="1.4831281151883218" fill="#bc13fe" opacity="0.05406773862778596"> <animate attributeName="opacity" values="0.1;0.5;0.1" dur="6s" repeatCount="indefinite" /> </circle><circle cx="83" cy="705" r="0.29355207963276286" fill="#bc13fe" opacity="0.1752389531741613"> <animate attributeName="opacity" values="0.1;0.5;0.1" dur="6s" repeatCount="indefinite" /> </circle><circle cx="755" cy="97" r="0.13092808607549844" fill="#bc13fe" opacity="0.2515431464851445"> <animate attributeName="opacity" values="0.1;0.5;0.1" dur="3s" repeatCount="indefinite" /> </circle><circle cx="43" cy="858" r="0.11084816581082735" fill="#bc13fe" opacity="0.1730183987581184"> <animate attributeName="opacity" values="0.1;0.5;0.1" dur="4s" repeatCount="indefinite" /> </circle><circle cx="993" cy="885" r="0.32990404376529736" fill="#bc13fe" opacity="0.05791999616856707"> <animate attributeName="opacity" values="0.1;0.5;0.1" dur="3s" repeatCount="indefinite" /> </circle><circle cx="333" cy="434" r="0.7396936742288245" fill="#bc13fe" opacity="0.2021258475251999"> <animate attributeName="opacity" values="0.1;0.5;0.1" dur="4s" repeatCount="indefinite" /> </circle><circle cx="352" cy="136" r="1.421363653741735" fill="#bc13fe" opacity="0.13666841758607076"> <animate attributeName="opacity" values="0.1;0.5;0.1" dur="5s" repeatCount="indefinite" /> </circle><circle cx="914" cy="570" r="0.909131351065783" fill="#bc13fe" opacity="0.13537483884760473"> <animate attributeName="opacity" values="0.1;0.5;0.1" dur="4s" repeatCount="indefinite" /> </circle><circle cx="29" cy="93" r="0.32252117249152645" fill="#bc13fe" opacity="0.1747830357407786"> <animate attributeName="opacity" values="0.1;0.5;0.1" dur="6s" repeatCount="indefinite" /> </circle><circle cx="751" cy="896" r="1.7238242671818995" fill="#bc13fe" opacity="0.01076656763871946"> <animate attributeName="opacity" values="0.1;0.5;0.1" dur="5s" repeatCount="indefinite" /> </circle><circle cx="420" cy="681" r="0.6564782285160793" fill="#bc13fe" opacity="0.2891605725604372"> <animate attributeName="opacity" values="0.1;0.5;0.1" dur="3s" repeatCount="indefinite" /> </circle><circle cx="1000" cy="884" r="1.3906711632957027" fill="#bc13fe" opacity="0.16201995295069715"> <animate attributeName="opacity" values="0.1;0.5;0.1" dur="6s" repeatCount="indefinite" /> </circle><circle cx="497" cy="553" r="0.7163045982043659" fill="#bc13fe" opacity="0.3155066232596573"> <animate attributeName="opacity" values="0.1;0.5;0.1" dur="4s" repeatCount="indefinite" /> </circle><circle cx="123" cy="778" r="1.339059593989329" fill="#bc13fe" opacity="0.1020380545587749"> <animate attributeName="opacity" values="0.1;0.5;0.1" dur="4s" repeatCount="indefinite" /> </circle><circle cx="850" cy="683" r="0.11087784768529052" fill="#bc13fe" opacity="0.03085489157949808"> <animate attributeName="opacity" values="0.1;0.5;0.1" dur="3s" repeatCount="indefinite" /> </circle><circle cx="536" cy="117" r="1.8952770385639341" fill="#bc13fe" opacity="0.20454490600800748"> <animate attributeName="opacity" values="0.1;0.5;0.1" dur="7s" repeatCount="indefinite" /> </circle><circle cx="228" cy="253" r="0.34102588204466033" fill="#bc13fe" opacity="0.22165834417871275"> <animate attributeName="opacity" values="0.1;0.5;0.1" dur="4s" repeatCount="indefinite" /> </circle><circle cx="65" cy="918" r="1.5711942959221121" fill="#bc13fe" opacity="0.17297318473226342"> <animate attributeName="opacity" values="0.1;0.5;0.1" dur="6s" repeatCount="indefinite" /> </circle><circle cx="191" cy="238" r="0.37064334165072643" fill="#bc13fe" opacity="0.24151446116778819"> <animate attributeName="opacity" values="0.1;0.5;0.1" dur="5s" repeatCount="indefinite" /> </circle><circle cx="890" cy="845" r="0.41516763140774104" fill="#bc13fe" opacity="0.2999907284734029"> <animate attributeName="opacity" values="0.1;0.5;0.1" dur="5s" repeatCount="indefinite" /> </circle><circle cx="31" cy="398" r="0.43294481956226405" fill="#bc13fe" opacity="0.26749245098673025"> <animate attributeName="opacity" values="0.1;0.5;0.1" dur="4s" repeatCount="indefinite" /> </circle><circle cx="497" cy="818" r="0.4350161855783472" fill="#bc13fe" opacity="0.12501336888202816"> <animate attributeName="opacity" values="0.1;0.5;0.1" dur="7s" repeatCount="indefinite" /> </circle><circle cx="981" cy="445" r="0.9014330026529702" fill="#bc13fe" opacity="0.11003531053534595"> <animate attributeName="opacity" values="0.1;0.5;0.1" dur="7s" repeatCount="indefinite" /> </circle><circle cx="816" cy="651" r="1.085086076411047" fill="#bc13fe" opacity="0.14947804524475253"> <animate attributeName="opacity" values="0.1;0.5;0.1" dur="6s" repeatCount="indefinite" /> </circle><circle cx="49" cy="86" r="1.3606026467274137" fill="#bc13fe" opacity="0.38669133329139516"> <animate attributeName="opacity" values="0.1;0.5;0.1" dur="7s" repeatCount="indefinite" /> </circle></g>
        
    
    <!-- Entidad Quantum -->
    <g transform="translate(100, 100) scale(0.8)">
        
        <g filter="url(#neonGlow)">
            <path d="M300,600 L200,400 L400,150 L700,180 L850,450 L750,650" fill="none" stroke="#bc13fe" stroke-width="4" stroke-dasharray="10,5" opacity="0.4" />
            <path d="M300,900 L350,600 L400,350 L550,250 L750,300 L800,550 L750,750 L650,950 Z" fill="none" stroke="#bc13fe" stroke-width="8" opacity="0.8" />
            <path d="M300,900 L350,600 L400,350 L550,250 L750,300 L800,550 L750,750 L650,950 Z" fill="none" stroke="#bc13fe" stroke-width="2" />
        </g>
        <g><rect x="520" y="480" width="60" height="20" fill="none" stroke="#bc13fe" stroke-width="2" filter="url(#microGlow)"/></g>
        <g><circle cx="552" cy="726" r="5" fill="#bc13fe" filter="url(#microGlow)"/><circle cx="586" cy="653" r="5" fill="#bc13fe" filter="url(#microGlow)"/><circle cx="458" cy="736" r="5" fill="#bc13fe" filter="url(#microGlow)"/><circle cx="639" cy="568" r="2" fill="#bc13fe" filter="url(#microGlow)"/><circle cx="528" cy="589" r="4" fill="#bc13fe" filter="url(#microGlow)"/><circle cx="517" cy="773" r="3" fill="#bc13fe" filter="url(#microGlow)"/><circle cx="568" cy="791" r="3" fill="#bc13fe" filter="url(#microGlow)"/><circle cx="506" cy="638" r="4" fill="#bc13fe" filter="url(#microGlow)"/><circle cx="472" cy="476" r="3" fill="#bc13fe" filter="url(#microGlow)"/><circle cx="587" cy="604" r="5" fill="#bc13fe" filter="url(#microGlow)"/></g>
        <g><path d="M530,704 h30 v30" fill="none" stroke="#bc13fe" stroke-width="0.8" opacity="0.6"/><path d="M364,732 h30 v30" fill="none" stroke="#bc13fe" stroke-width="0.8" opacity="0.6"/><path d="M573,325 h30 v30" fill="none" stroke="#bc13fe" stroke-width="0.8" opacity="0.6"/><path d="M490,277 h30 v30" fill="none" stroke="#bc13fe" stroke-width="0.8" opacity="0.6"/><path d="M628,630 h30 v30" fill="none" stroke="#bc13fe" stroke-width="0.8" opacity="0.6"/><path d="M506,791 h30 v30" fill="none" stroke="#bc13fe" stroke-width="0.8" opacity="0.6"/><path d="M440,338 h30 v30" fill="none" stroke="#bc13fe" stroke-width="0.8" opacity="0.6"/><path d="M419,537 h30 v30" fill="none" stroke="#bc13fe" stroke-width="0.8" opacity="0.6"/><path d="M499,455 h30 v30" fill="none" stroke="#bc13fe" stroke-width="0.8" opacity="0.6"/><path d="M408,688 h30 v30" fill="none" stroke="#bc13fe" stroke-width="0.8" opacity="0.6"/><path d="M348,738 h30 v30" fill="none" stroke="#bc13fe" stroke-width="0.8" opacity="0.6"/><path d="M396,711 h30 v30" fill="none" stroke="#bc13fe" stroke-width="0.8" opacity="0.6"/><path d="M680,612 h30 v30" fill="none" stroke="#bc13fe" stroke-width="0.8" opacity="0.6"/><path d="M525,480 h30 v30" fill="none" stroke="#bc13fe" stroke-width="0.8" opacity="0.6"/><path d="M700,329 h30 v30" fill="none" stroke="#bc13fe" stroke-width="0.8" opacity="0.6"/><path d="M402,679 h30 v30" fill="none" stroke="#bc13fe" stroke-width="0.8" opacity="0.6"/><path d="M389,777 h30 v30" fill="none" stroke="#bc13fe" stroke-width="0.8" opacity="0.6"/><path d="M635,359 h30 v30" fill="none" stroke="#bc13fe" stroke-width="0.8" opacity="0.6"/><path d="M499,425 h30 v30" fill="none" stroke="#bc13fe" stroke-width="0.8" opacity="0.6"/><path d="M695,768 h30 v30" fill="none" stroke="#bc13fe" stroke-width="0.8" opacity="0.6"/></g>
        
    </g>
    
    <!-- HUD Layer -->
    
        <g font-family="monospace" font-size="10" fill="#bc13fe" opacity="0.7">
            <!-- Esquinas -->
            <path d="M50,50 L100,50 M50,50 L50,100" stroke="#bc13fe" fill="none"/>
            <path d="M950,50 L900,50 M950,50 L950,100" stroke="#bc13fe" fill="none"/>
            <path d="M50,950 L100,950 M50,950 L50,900" stroke="#bc13fe" fill="none"/>
            <path d="M950,950 L900,950 M950,950 L950,900" stroke="#bc13fe" fill="none"/>
            
            <text x="60" y="65">SCANNING_NEURAL_LINK...</text>
            <text x="60" y="80">QUANTUM_STABILITY: 98.4%</text>
            <text x="60" y="935">DEITY_CLASS: ANDROID ALPHA</text>
            <text x="800" y="935">REF_0xD5C121</text>
        </g>
        
</svg>