<svg width="1000" height="1000" viewBox="0 0 1000 1000" xmlns="http://www.w3.org/2000/svg">
    <defs>
        
        <filter id="neonGlow" x="-50%" y="-50%" width="200%" height="200%">
            <feGaussianBlur stdDeviation="15" result="blur1" />
            <feGaussianBlur stdDeviation="30" result="blur2" />
            <feMerge>
                <feMergeNode in="blur2" />
                <feMergeNode in="blur1" />
                <feMergeNode in="SourceGraphic" />
            </feMerge>
        </filter>
        <filter id="microGlow" x="-20%" y="-20%" width="140%" height="140%">
            <feGaussianBlur stdDeviation="4" result="blur" />
            <feMerge>
                <feMergeNode in="blur" />
                <feMergeNode in="SourceGraphic" />
            </feMerge>
        </filter>
        <radialGradient id="auraGrad" cx="50%" cy="50%" r="50%">
            <stop offset="0%" stop-color="#bc13fe" stop-opacity="0.3"/>
            <stop offset="100%" stop-color="transparent" />
        </radialGradient>
        
    </defs>
    
    <!-- Atmosfera -->
    
        <rect width="1000" height="1000" fill="#050505" />
        <circle cx="500" cy="500" r="600" fill="url(#auraGrad)" opacity="0.5"/>
        <g><line x1="0" y1="0" x2="1000" y2="0" stroke="#bc13fe" stroke-width="0.5" opacity="0.05"/><line x1="0" y1="100" x2="1000" y2="100" stroke="#bc13fe" stroke-width="0.5" opacity="0.05"/><line x1="0" y1="200" x2="1000" y2="200" stroke="#bc13fe" stroke-width="0.5" opacity="0.05"/><line x1="0" y1="300" x2="1000" y2="300" stroke="#bc13fe" stroke-width="0.5" opacity="0.05"/><line x1="0" y1="400" x2="1000" y2="400" stroke="#bc13fe" stroke-width="0.5" opacity="0.05"/><line x1="0" y1="500" x2="1000" y2="500" stroke="#bc13fe" stroke-width="0.5" opacity="0.05"/><line x1="0" y1="600" x2="1000" y2="600" stroke="#bc13fe" stroke-width="0.5" opacity="0.05"/><line x1="0" y1="700" x2="1000" y2="700" stroke="#bc13fe" stroke-width="0.5" opacity="0.05"/><line x1="0" y1="800" x2="1000" y2="800" stroke="#bc13fe" stroke-width="0.5" opacity="0.05"/><line x1="0" y1="900" x2="1000" y2="900" stroke="#bc13fe" stroke-width="0.5" opacity="0.05"/><line x1="0" y1="1000" x2="1000" y2="1000" stroke="#bc13fe" stroke-width="0.5" opacity="0.05"/><line x1="0" y1="0" x2="0" y2="1000" stroke="#bc13fe" stroke-width="0.5" opacity="0.05"/><line x1="100" y1="0" x2="100" y2="1000" stroke="#bc13fe" stroke-width="0.5" opacity="0.05"/><line x1="200" y1="0" x2="200" y2="1000" stroke="#bc13fe" stroke-width="0.5" opacity="0.05"/><line x1="300" y1="0" x2="300" y2="1000" stroke="#bc13fe" stroke-width="0.5" opacity="0.05"/><line x1="400" y1="0" x2="400" y2="1000" stroke="#bc13fe" stroke-width="0.5" opacity="0.05"/><line x1="500" y1="0" x2="500" y2="1000" stroke="#bc13fe" stroke-width="0.5" opacity="0.05"/><line x1="600" y1="0" x2="600" y2="1000" stroke="#bc13fe" stroke-width="0.5" opacity="0.05"/><line x1="700" y1="0" x2="700" y2="1000" stroke="#bc13fe" stroke-width="0.5" opacity="0.05"/><line x1="800" y1="0" x2="800" y2="1000" stroke="#bc13fe" stroke-width="0.5" opacity="0.05"/><line x1="900" y1="0" x2="900" y2="1000" stroke="#bc13fe" stroke-width="0.5" opacity="0.05"/><line x1="1000" y1="0" x2="1000" y2="1000" stroke="#bc13fe" stroke-width="0.5" opacity="0.05"/></g>
        <g><circle cx="265" cy="215" r="1.6749756253216999" fill="#bc13fe" opacity="0.2382472578508934"> <animate attributeName="opacity" values="0.1;0.5;0.1" dur="7s" repeatCount="indefinite" /> </circle><circle cx="398" cy="266" r="1.1036291373063143" fill="#bc13fe" opacity="0.0027073767206112543"> <animate attributeName="opacity" values="0.1;0.5;0.1" dur="3s" repeatCount="indefinite" /> </circle><circle cx="594" cy="266" r="0.4704182338281082" fill="#bc13fe" opacity="0.3505875321147694"> <animate attributeName="opacity" values="0.1;0.5;0.1" dur="3s" repeatCount="indefinite" /> </circle><circle cx="191" cy="355" r="0.9897109730768248" fill="#bc13fe" opacity="0.17520139348818994"> <animate attributeName="opacity" values="0.1;0.5;0.1" dur="5s" repeatCount="indefinite" /> </circle><circle cx="90" cy="768" r="1.9508970233698115" fill="#bc13fe" opacity="0.32289964236979657"> <animate attributeName="opacity" values="0.1;0.5;0.1" dur="5s" repeatCount="indefinite" /> </circle><circle cx="762" cy="701" r="0.978815332147867" fill="#bc13fe" opacity="0.14948847288736297"> <animate attributeName="opacity" values="0.1;0.5;0.1" dur="5s" repeatCount="indefinite" /> </circle><circle cx="977" cy="533" r="0.8634322188001018" fill="#bc13fe" opacity="0.07272833656941731"> <animate attributeName="opacity" values="0.1;0.5;0.1" dur="6s" repeatCount="indefinite" /> </circle><circle cx="425" cy="244" r="1.60410384582428" fill="#bc13fe" opacity="0.3532550057943886"> <animate attributeName="opacity" values="0.1;0.5;0.1" dur="6s" repeatCount="indefinite" /> </circle><circle cx="903" cy="49" r="0.6499769831695366" fill="#bc13fe" opacity="0.2856062410297382"> <animate attributeName="opacity" values="0.1;0.5;0.1" dur="4s" repeatCount="indefinite" /> </circle><circle cx="260" cy="844" r="1.398201489952542" fill="#bc13fe" opacity="0.3406564063646763"> <animate attributeName="opacity" values="0.1;0.5;0.1" dur="6s" repeatCount="indefinite" /> </circle><circle cx="601" cy="365" r="0.7983326163165008" fill="#bc13fe" opacity="0.3391419527291177"> <animate attributeName="opacity" values="0.1;0.5;0.1" dur="3s" repeatCount="indefinite" /> </circle><circle cx="434" cy="787" r="1.8004590668338196" fill="#bc13fe" opacity="0.16012589060716534"> <animate attributeName="opacity" values="0.1;0.5;0.1" dur="7s" repeatCount="indefinite" /> </circle><circle cx="698" cy="4" r="1.9931627779215746" fill="#bc13fe" opacity="0.20804622051211097"> <animate attributeName="opacity" values="0.1;0.5;0.1" dur="5s" repeatCount="indefinite" /> </circle><circle cx="76" cy="178" r="1.461135711177428" fill="#bc13fe" opacity="0.2190277726938672"> <animate attributeName="opacity" values="0.1;0.5;0.1" dur="7s" repeatCount="indefinite" /> </circle><circle cx="151" cy="502" r="0.9445721432469152" fill="#bc13fe" opacity="0.30583303820074503"> <animate attributeName="opacity" values="0.1;0.5;0.1" dur="4s" repeatCount="indefinite" /> </circle><circle cx="923" cy="935" r="1.9682272145298298" fill="#bc13fe" opacity="0.26892834514440783"> <animate attributeName="opacity" values="0.1;0.5;0.1" dur="6s" repeatCount="indefinite" /> </circle><circle cx="109" cy="64" r="1.405162729966394" fill="#bc13fe" opacity="0.04773304904008389"> <animate attributeName="opacity" values="0.1;0.5;0.1" dur="4s" repeatCount="indefinite" /> </circle><circle cx="192" cy="14" r="0.7036100850678919" fill="#bc13fe" opacity="0.20803254356798245"> <animate attributeName="opacity" values="0.1;0.5;0.1" dur="4s" repeatCount="indefinite" /> </circle><circle cx="145" cy="592" r="0.19498643837006768" fill="#bc13fe" opacity="0.08123441821998766"> <animate attributeName="opacity" values="0.1;0.5;0.1" dur="5s" repeatCount="indefinite" /> </circle><circle cx="881" cy="808" r="1.085153003984325" fill="#bc13fe" opacity="0.05506452735032866"> <animate attributeName="opacity" values="0.1;0.5;0.1" dur="3s" repeatCount="indefinite" /> </circle><circle cx="288" cy="693" r="0.4197666285544428" fill="#bc13fe" opacity="0.2582746043041199"> <animate attributeName="opacity" values="0.1;0.5;0.1" dur="5s" repeatCount="indefinite" /> </circle><circle cx="802" cy="95" r="1.5374293201327616" fill="#bc13fe" opacity="0.14936538824795234"> <animate attributeName="opacity" values="0.1;0.5;0.1" dur="6s" repeatCount="indefinite" /> </circle><circle cx="86" cy="854" r="0.8238173546763636" fill="#bc13fe" opacity="0.042132490908853404"> <animate attributeName="opacity" values="0.1;0.5;0.1" dur="4s" repeatCount="indefinite" /> </circle><circle cx="104" cy="136" r="0.05151725742336111" fill="#bc13fe" opacity="0.39395546311076607"> <animate attributeName="opacity" values="0.1;0.5;0.1" dur="5s" repeatCount="indefinite" /> </circle><circle cx="209" cy="578" r="1.4312022263188067" fill="#bc13fe" opacity="0.08520781661427512"> <animate attributeName="opacity" values="0.1;0.5;0.1" dur="6s" repeatCount="indefinite" /> </circle><circle cx="133" cy="908" r="1.8827824923527614" fill="#bc13fe" opacity="0.28806696043088037"> <animate attributeName="opacity" values="0.1;0.5;0.1" dur="5s" repeatCount="indefinite" /> </circle><circle cx="557" cy="848" r="0.8720963528189742" fill="#bc13fe" opacity="0.2538541914853955"> <animate attributeName="opacity" values="0.1;0.5;0.1" dur="3s" repeatCount="indefinite" /> </circle><circle cx="991" cy="474" r="0.7118094280198808" fill="#bc13fe" opacity="0.2077270606657856"> <animate attributeName="opacity" values="0.1;0.5;0.1" dur="5s" repeatCount="indefinite" /> </circle><circle cx="926" cy="652" r="1.7997202515894097" fill="#bc13fe" opacity="0.05641906984893766"> <animate attributeName="opacity" values="0.1;0.5;0.1" dur="7s" repeatCount="indefinite" /> </circle><circle cx="233" cy="189" r="1.5768183823747162" fill="#bc13fe" opacity="0.28681337633366966"> <animate attributeName="opacity" values="0.1;0.5;0.1" dur="4s" repeatCount="indefinite" /> </circle><circle cx="302" cy="110" r="1.9172194190754976" fill="#bc13fe" opacity="0.17292819004838922"> <animate attributeName="opacity" values="0.1;0.5;0.1" dur="6s" repeatCount="indefinite" /> </circle><circle cx="207" cy="140" r="0.9585676519882314" fill="#bc13fe" opacity="0.1507448667953788"> <animate attributeName="opacity" values="0.1;0.5;0.1" dur="6s" repeatCount="indefinite" /> </circle><circle cx="520" cy="357" r="1.1329252170103097" fill="#bc13fe" opacity="0.12487560611682871"> <animate attributeName="opacity" values="0.1;0.5;0.1" dur="5s" repeatCount="indefinite" /> </circle><circle cx="770" cy="54" r="0.4894162588565176" fill="#bc13fe" opacity="0.12140089107328"> <animate attributeName="opacity" values="0.1;0.5;0.1" dur="3s" repeatCount="indefinite" /> </circle><circle cx="837" cy="824" r="1.9890920026086272" fill="#bc13fe" opacity="0.18833602865563273"> <animate attributeName="opacity" values="0.1;0.5;0.1" dur="3s" repeatCount="indefinite" /> </circle><circle cx="855" cy="217" r="0.28303711290906475" fill="#bc13fe" opacity="0.34617216574427545"> <animate attributeName="opacity" values="0.1;0.5;0.1" dur="5s" repeatCount="indefinite" /> </circle><circle cx="988" cy="402" r="0.6707598673886848" fill="#bc13fe" opacity="0.302497609217724"> <animate attributeName="opacity" values="0.1;0.5;0.1" dur="3s" repeatCount="indefinite" /> </circle><circle cx="50" cy="10" r="1.5946924078867735" fill="#bc13fe" opacity="0.15790356063978417"> <animate attributeName="opacity" values="0.1;0.5;0.1" dur="5s" repeatCount="indefinite" /> </circle><circle cx="926" cy="814" r="1.5986390283623293" fill="#bc13fe" opacity="0.29921468701829784"> <animate attributeName="opacity" values="0.1;0.5;0.1" dur="7s" repeatCount="indefinite" /> </circle><circle cx="921" cy="741" r="0.1786842190284499" fill="#bc13fe" opacity="0.29460257060538203"> <animate attributeName="opacity" values="0.1;0.5;0.1" dur="5s" repeatCount="indefinite" /> </circle><circle cx="825" cy="848" r="0.26154091612009855" fill="#bc13fe" opacity="0.3010423249308048"> <animate attributeName="opacity" values="0.1;0.5;0.1" dur="5s" repeatCount="indefinite" /> </circle><circle cx="365" cy="636" r="1.1673130470679185" fill="#bc13fe" opacity="0.30594053045185743"> <animate attributeName="opacity" values="0.1;0.5;0.1" dur="4s" repeatCount="indefinite" /> </circle><circle cx="574" cy="506" r="1.9575962409219978" fill="#bc13fe" opacity="0.0814357314159179"> <animate attributeName="opacity" values="0.1;0.5;0.1" dur="5s" repeatCount="indefinite" /> </circle><circle cx="138" cy="382" r="1.1430144067016472" fill="#bc13fe" opacity="0.14500523196566517"> <animate attributeName="opacity" values="0.1;0.5;0.1" dur="4s" repeatCount="indefinite" /> </circle><circle cx="584" cy="642" r="0.5676353393216584" fill="#bc13fe" opacity="0.07768722790384733"> <animate attributeName="opacity" values="0.1;0.5;0.1" dur="4s" repeatCount="indefinite" /> </circle><circle cx="460" cy="379" r="0.9122098973482313" fill="#bc13fe" opacity="0.01503489339941635"> <animate attributeName="opacity" values="0.1;0.5;0.1" dur="4s" repeatCount="indefinite" /> </circle><circle cx="731" cy="35" r="1.07900879796656" fill="#bc13fe" opacity="0.05768072407061493"> <animate attributeName="opacity" values="0.1;0.5;0.1" dur="4s" repeatCount="indefinite" /> </circle><circle cx="801" cy="859" r="1.9101972731164112" fill="#bc13fe" opacity="0.104811369877654"> <animate attributeName="opacity" values="0.1;0.5;0.1" dur="4s" repeatCount="indefinite" /> </circle><circle cx="376" cy="262" r="0.9550642729694381" fill="#bc13fe" opacity="0.33307353395623834"> <animate attributeName="opacity" values="0.1;0.5;0.1" dur="7s" repeatCount="indefinite" /> </circle><circle cx="73" cy="778" r="1.9263898637991694" fill="#bc13fe" opacity="0.0010001120802174412"> <animate attributeName="opacity" values="0.1;0.5;0.1" dur="7s" repeatCount="indefinite" /> </circle></g>
        
    
    <!-- Entidad Quantum -->
    <g transform="translate(100, 100) scale(0.8)">
        
        <g filter="url(#neonGlow)">
            <path d="M280,650 Q150,550 200,300 Q250,100 500,100 Q750,100 800,400 Q850,700 700,850" fill="none" stroke="#bc13fe" stroke-width="4" stroke-dasharray="10,5" opacity="0.4" />
            <path d="M280,850 C280,700 300,550 450,450 C550,380 650,400 700,500 C730,580 720,620 680,680 C640,740 600,750 580,800 C560,850 580,920 620,1000" fill="none" stroke="#bc13fe" stroke-width="8" opacity="0.8" />
            <path d="M280,850 C280,700 300,550 450,450 C550,380 650,400 700,500 C730,580 720,620 680,680 C640,740 600,750 580,800 C560,850 580,920 620,1000" fill="none" stroke="#bc13fe" stroke-width="2" />
        </g>
        <g><circle cx="550" cy="520" r="15" fill="none" stroke="#bc13fe" stroke-width="2" filter="url(#microGlow)"/> <path d="M530,520 L570,520 M550,500 L550,540" stroke="#bc13fe" stroke-width="1"/></g>
        <g><circle cx="540" cy="663" r="4" fill="#bc13fe" filter="url(#microGlow)"/><circle cx="531" cy="429" r="4" fill="#bc13fe" filter="url(#microGlow)"/><circle cx="597" cy="632" r="4" fill="#bc13fe" filter="url(#microGlow)"/><circle cx="457" cy="466" r="2" fill="#bc13fe" filter="url(#microGlow)"/><circle cx="441" cy="751" r="4" fill="#bc13fe" filter="url(#microGlow)"/></g>
        <g><path d="M452,428 h30 v30" fill="none" stroke="#bc13fe" stroke-width="0.8" opacity="0.6"/><path d="M341,277 h30 v30" fill="none" stroke="#bc13fe" stroke-width="0.8" opacity="0.6"/><path d="M422,503 h30 v30" fill="none" stroke="#bc13fe" stroke-width="0.8" opacity="0.6"/><path d="M540,619 h30 v30" fill="none" stroke="#bc13fe" stroke-width="0.8" opacity="0.6"/><path d="M446,782 h30 v30" fill="none" stroke="#bc13fe" stroke-width="0.8" opacity="0.6"/><path d="M445,420 h30 v30" fill="none" stroke="#bc13fe" stroke-width="0.8" opacity="0.6"/><path d="M529,412 h30 v30" fill="none" stroke="#bc13fe" stroke-width="0.8" opacity="0.6"/><path d="M441,285 h30 v30" fill="none" stroke="#bc13fe" stroke-width="0.8" opacity="0.6"/><path d="M551,611 h30 v30" fill="none" stroke="#bc13fe" stroke-width="0.8" opacity="0.6"/><path d="M494,576 h30 v30" fill="none" stroke="#bc13fe" stroke-width="0.8" opacity="0.6"/></g>
        
    </g>
    
    <!-- HUD Layer -->
    
        <g font-family="monospace" font-size="10" fill="#bc13fe" opacity="0.7">
            <!-- Esquinas -->
            <path d="M50,50 L100,50 M50,50 L50,100" stroke="#bc13fe" fill="none"/>
            <path d="M950,50 L900,50 M950,50 L950,100" stroke="#bc13fe" fill="none"/>
            <path d="M50,950 L100,950 M50,950 L50,900" stroke="#bc13fe" fill="none"/>
            <path d="M950,950 L900,950 M950,950 L950,900" stroke="#bc13fe" fill="none"/>
            
            <text x="60" y="65">SCANNING_NEURAL_LINK...</text>
            <text x="60" y="80">QUANTUM_STABILITY: 98.4%</text>
            <text x="60" y="935">DEITY_CLASS: CYBER MUSE</text>
            <text x="800" y="935">REF_0xD7C226</text>
        </g>
        
</svg>