<svg width="1000" height="1000" viewBox="0 0 1000 1000" xmlns="http://www.w3.org/2000/svg">
    <defs>
        
        <filter id="neonGlow" x="-50%" y="-50%" width="200%" height="200%">
            <feGaussianBlur stdDeviation="15" result="blur1" />
            <feGaussianBlur stdDeviation="30" result="blur2" />
            <feMerge>
                <feMergeNode in="blur2" />
                <feMergeNode in="blur1" />
                <feMergeNode in="SourceGraphic" />
            </feMerge>
        </filter>
        <filter id="microGlow" x="-20%" y="-20%" width="140%" height="140%">
            <feGaussianBlur stdDeviation="4" result="blur" />
            <feMerge>
                <feMergeNode in="blur" />
                <feMergeNode in="SourceGraphic" />
            </feMerge>
        </filter>
        <radialGradient id="auraGrad" cx="50%" cy="50%" r="50%">
            <stop offset="0%" stop-color="#bc13fe" stop-opacity="0.3"/>
            <stop offset="100%" stop-color="transparent" />
        </radialGradient>
        
    </defs>
    
    <!-- Atmosfera -->
    
        <rect width="1000" height="1000" fill="#050505" />
        <circle cx="500" cy="500" r="600" fill="url(#auraGrad)" opacity="0.5"/>
        <g><line x1="0" y1="0" x2="1000" y2="0" stroke="#bc13fe" stroke-width="0.5" opacity="0.05"/><line x1="0" y1="100" x2="1000" y2="100" stroke="#bc13fe" stroke-width="0.5" opacity="0.05"/><line x1="0" y1="200" x2="1000" y2="200" stroke="#bc13fe" stroke-width="0.5" opacity="0.05"/><line x1="0" y1="300" x2="1000" y2="300" stroke="#bc13fe" stroke-width="0.5" opacity="0.05"/><line x1="0" y1="400" x2="1000" y2="400" stroke="#bc13fe" stroke-width="0.5" opacity="0.05"/><line x1="0" y1="500" x2="1000" y2="500" stroke="#bc13fe" stroke-width="0.5" opacity="0.05"/><line x1="0" y1="600" x2="1000" y2="600" stroke="#bc13fe" stroke-width="0.5" opacity="0.05"/><line x1="0" y1="700" x2="1000" y2="700" stroke="#bc13fe" stroke-width="0.5" opacity="0.05"/><line x1="0" y1="800" x2="1000" y2="800" stroke="#bc13fe" stroke-width="0.5" opacity="0.05"/><line x1="0" y1="900" x2="1000" y2="900" stroke="#bc13fe" stroke-width="0.5" opacity="0.05"/><line x1="0" y1="1000" x2="1000" y2="1000" stroke="#bc13fe" stroke-width="0.5" opacity="0.05"/><line x1="0" y1="0" x2="0" y2="1000" stroke="#bc13fe" stroke-width="0.5" opacity="0.05"/><line x1="100" y1="0" x2="100" y2="1000" stroke="#bc13fe" stroke-width="0.5" opacity="0.05"/><line x1="200" y1="0" x2="200" y2="1000" stroke="#bc13fe" stroke-width="0.5" opacity="0.05"/><line x1="300" y1="0" x2="300" y2="1000" stroke="#bc13fe" stroke-width="0.5" opacity="0.05"/><line x1="400" y1="0" x2="400" y2="1000" stroke="#bc13fe" stroke-width="0.5" opacity="0.05"/><line x1="500" y1="0" x2="500" y2="1000" stroke="#bc13fe" stroke-width="0.5" opacity="0.05"/><line x1="600" y1="0" x2="600" y2="1000" stroke="#bc13fe" stroke-width="0.5" opacity="0.05"/><line x1="700" y1="0" x2="700" y2="1000" stroke="#bc13fe" stroke-width="0.5" opacity="0.05"/><line x1="800" y1="0" x2="800" y2="1000" stroke="#bc13fe" stroke-width="0.5" opacity="0.05"/><line x1="900" y1="0" x2="900" y2="1000" stroke="#bc13fe" stroke-width="0.5" opacity="0.05"/><line x1="1000" y1="0" x2="1000" y2="1000" stroke="#bc13fe" stroke-width="0.5" opacity="0.05"/></g>
        <g><circle cx="806" cy="257" r="0.5066580766225353" fill="#bc13fe" opacity="0.13557517721201728"> <animate attributeName="opacity" values="0.1;0.5;0.1" dur="3s" repeatCount="indefinite" /> </circle><circle cx="141" cy="910" r="0.9774730549361514" fill="#bc13fe" opacity="0.13160812687086465"> <animate attributeName="opacity" values="0.1;0.5;0.1" dur="3s" repeatCount="indefinite" /> </circle><circle cx="251" cy="129" r="0.8421632249061275" fill="#bc13fe" opacity="0.11509229358667979"> <animate attributeName="opacity" values="0.1;0.5;0.1" dur="7s" repeatCount="indefinite" /> </circle><circle cx="118" cy="670" r="1.5631501855287442" fill="#bc13fe" opacity="0.012493253467639277"> <animate attributeName="opacity" values="0.1;0.5;0.1" dur="5s" repeatCount="indefinite" /> </circle><circle cx="193" cy="745" r="1.6577712128943698" fill="#bc13fe" opacity="0.37218179440819354"> <animate attributeName="opacity" values="0.1;0.5;0.1" dur="5s" repeatCount="indefinite" /> </circle><circle cx="824" cy="57" r="1.3093318462899102" fill="#bc13fe" opacity="0.23280678922320092"> <animate attributeName="opacity" values="0.1;0.5;0.1" dur="6s" repeatCount="indefinite" /> </circle><circle cx="360" cy="850" r="1.8130539158495593" fill="#bc13fe" opacity="0.0777079735319735"> <animate attributeName="opacity" values="0.1;0.5;0.1" dur="6s" repeatCount="indefinite" /> </circle><circle cx="812" cy="325" r="0.5444567040011943" fill="#bc13fe" opacity="0.28844011143287696"> <animate attributeName="opacity" values="0.1;0.5;0.1" dur="6s" repeatCount="indefinite" /> </circle><circle cx="910" cy="333" r="0.9185471437613344" fill="#bc13fe" opacity="0.24568963937472593"> <animate attributeName="opacity" values="0.1;0.5;0.1" dur="5s" repeatCount="indefinite" /> </circle><circle cx="956" cy="958" r="1.031981860937101" fill="#bc13fe" opacity="0.0019137429785385685"> <animate attributeName="opacity" values="0.1;0.5;0.1" dur="6s" repeatCount="indefinite" /> </circle><circle cx="178" cy="600" r="1.7145568456974802" fill="#bc13fe" opacity="0.178031266788946"> <animate attributeName="opacity" values="0.1;0.5;0.1" dur="7s" repeatCount="indefinite" /> </circle><circle cx="77" cy="15" r="1.072869466168236" fill="#bc13fe" opacity="0.13755844369474715"> <animate attributeName="opacity" values="0.1;0.5;0.1" dur="6s" repeatCount="indefinite" /> </circle><circle cx="870" cy="506" r="1.8264763465930978" fill="#bc13fe" opacity="0.375386845660867"> <animate attributeName="opacity" values="0.1;0.5;0.1" dur="6s" repeatCount="indefinite" /> </circle><circle cx="294" cy="222" r="0.720504344488146" fill="#bc13fe" opacity="0.17690284716271978"> <animate attributeName="opacity" values="0.1;0.5;0.1" dur="3s" repeatCount="indefinite" /> </circle><circle cx="580" cy="367" r="0.7042781094699664" fill="#bc13fe" opacity="0.2636032906923401"> <animate attributeName="opacity" values="0.1;0.5;0.1" dur="4s" repeatCount="indefinite" /> </circle><circle cx="413" cy="573" r="1.5466970537524534" fill="#bc13fe" opacity="0.3588028877113594"> <animate attributeName="opacity" values="0.1;0.5;0.1" dur="4s" repeatCount="indefinite" /> </circle><circle cx="886" cy="678" r="1.9085624438154574" fill="#bc13fe" opacity="0.1430054113736555"> <animate attributeName="opacity" values="0.1;0.5;0.1" dur="4s" repeatCount="indefinite" /> </circle><circle cx="330" cy="187" r="1.2772564808674662" fill="#bc13fe" opacity="0.0678578973961702"> <animate attributeName="opacity" values="0.1;0.5;0.1" dur="6s" repeatCount="indefinite" /> </circle><circle cx="433" cy="234" r="0.1093882696642483" fill="#bc13fe" opacity="0.24358294588906781"> <animate attributeName="opacity" values="0.1;0.5;0.1" dur="6s" repeatCount="indefinite" /> </circle><circle cx="188" cy="114" r="1.662612497266336" fill="#bc13fe" opacity="0.1638297954097261"> <animate attributeName="opacity" values="0.1;0.5;0.1" dur="4s" repeatCount="indefinite" /> </circle><circle cx="463" cy="449" r="1.7457128846279164" fill="#bc13fe" opacity="0.06398260746678877"> <animate attributeName="opacity" values="0.1;0.5;0.1" dur="6s" repeatCount="indefinite" /> </circle><circle cx="786" cy="919" r="0.41885704281345126" fill="#bc13fe" opacity="0.15304026528705572"> <animate attributeName="opacity" values="0.1;0.5;0.1" dur="4s" repeatCount="indefinite" /> </circle><circle cx="192" cy="466" r="0.324632377173371" fill="#bc13fe" opacity="0.26664245377665835"> <animate attributeName="opacity" values="0.1;0.5;0.1" dur="6s" repeatCount="indefinite" /> </circle><circle cx="575" cy="35" r="1.9385814736877123" fill="#bc13fe" opacity="0.34406295108926616"> <animate attributeName="opacity" values="0.1;0.5;0.1" dur="3s" repeatCount="indefinite" /> </circle><circle cx="653" cy="961" r="1.6509787131440385" fill="#bc13fe" opacity="0.09946785849294493"> <animate attributeName="opacity" values="0.1;0.5;0.1" dur="7s" repeatCount="indefinite" /> </circle><circle cx="744" cy="222" r="1.3191779201574834" fill="#bc13fe" opacity="0.031751673352301515"> <animate attributeName="opacity" values="0.1;0.5;0.1" dur="5s" repeatCount="indefinite" /> </circle><circle cx="387" cy="591" r="0.8410171986822941" fill="#bc13fe" opacity="0.2813631595933703"> <animate attributeName="opacity" values="0.1;0.5;0.1" dur="5s" repeatCount="indefinite" /> </circle><circle cx="449" cy="593" r="1.169306693821969" fill="#bc13fe" opacity="0.09875560412653278"> <animate attributeName="opacity" values="0.1;0.5;0.1" dur="4s" repeatCount="indefinite" /> </circle><circle cx="143" cy="336" r="1.124433063537814" fill="#bc13fe" opacity="0.210772620218864"> <animate attributeName="opacity" values="0.1;0.5;0.1" dur="4s" repeatCount="indefinite" /> </circle><circle cx="70" cy="529" r="1.7883715858531686" fill="#bc13fe" opacity="0.13574826311477156"> <animate attributeName="opacity" values="0.1;0.5;0.1" dur="4s" repeatCount="indefinite" /> </circle><circle cx="540" cy="303" r="1.8504324637141718" fill="#bc13fe" opacity="0.020530318632950764"> <animate attributeName="opacity" values="0.1;0.5;0.1" dur="4s" repeatCount="indefinite" /> </circle><circle cx="344" cy="591" r="0.40177789695400445" fill="#bc13fe" opacity="0.3482957728126764"> <animate attributeName="opacity" values="0.1;0.5;0.1" dur="7s" repeatCount="indefinite" /> </circle><circle cx="268" cy="966" r="0.03758580811721557" fill="#bc13fe" opacity="0.028738109383033984"> <animate attributeName="opacity" values="0.1;0.5;0.1" dur="6s" repeatCount="indefinite" /> </circle><circle cx="131" cy="290" r="0.04942769624542853" fill="#bc13fe" opacity="0.18795350770813912"> <animate attributeName="opacity" values="0.1;0.5;0.1" dur="7s" repeatCount="indefinite" /> </circle><circle cx="571" cy="250" r="0.9844806914924253" fill="#bc13fe" opacity="0.38980095348074006"> <animate attributeName="opacity" values="0.1;0.5;0.1" dur="4s" repeatCount="indefinite" /> </circle><circle cx="407" cy="985" r="1.9767442440313356" fill="#bc13fe" opacity="0.24642838521193833"> <animate attributeName="opacity" values="0.1;0.5;0.1" dur="6s" repeatCount="indefinite" /> </circle><circle cx="113" cy="926" r="0.027466669054311943" fill="#bc13fe" opacity="0.14840094451763255"> <animate attributeName="opacity" values="0.1;0.5;0.1" dur="7s" repeatCount="indefinite" /> </circle><circle cx="926" cy="626" r="1.7045657415091284" fill="#bc13fe" opacity="0.21442171354432205"> <animate attributeName="opacity" values="0.1;0.5;0.1" dur="4s" repeatCount="indefinite" /> </circle><circle cx="19" cy="479" r="0.8539561127422259" fill="#bc13fe" opacity="0.24825628862063467"> <animate attributeName="opacity" values="0.1;0.5;0.1" dur="6s" repeatCount="indefinite" /> </circle><circle cx="250" cy="130" r="1.99024436565904" fill="#bc13fe" opacity="0.0845368079238838"> <animate attributeName="opacity" values="0.1;0.5;0.1" dur="5s" repeatCount="indefinite" /> </circle><circle cx="443" cy="841" r="1.456376195064584" fill="#bc13fe" opacity="0.3105395217426947"> <animate attributeName="opacity" values="0.1;0.5;0.1" dur="5s" repeatCount="indefinite" /> </circle><circle cx="354" cy="769" r="1.1609674984945841" fill="#bc13fe" opacity="0.20170755305485982"> <animate attributeName="opacity" values="0.1;0.5;0.1" dur="7s" repeatCount="indefinite" /> </circle><circle cx="91" cy="604" r="1.7279707955058017" fill="#bc13fe" opacity="0.09254172192431707"> <animate attributeName="opacity" values="0.1;0.5;0.1" dur="4s" repeatCount="indefinite" /> </circle><circle cx="627" cy="975" r="1.2055241555005587" fill="#bc13fe" opacity="0.2970585402479535"> <animate attributeName="opacity" values="0.1;0.5;0.1" dur="3s" repeatCount="indefinite" /> </circle><circle cx="924" cy="689" r="1.9748546862074678" fill="#bc13fe" opacity="0.39186099348548925"> <animate attributeName="opacity" values="0.1;0.5;0.1" dur="4s" repeatCount="indefinite" /> </circle><circle cx="173" cy="221" r="0.015601418547208867" fill="#bc13fe" opacity="0.006164619268432681"> <animate attributeName="opacity" values="0.1;0.5;0.1" dur="7s" repeatCount="indefinite" /> </circle><circle cx="352" cy="290" r="0.13459638891996106" fill="#bc13fe" opacity="0.3731718411652531"> <animate attributeName="opacity" values="0.1;0.5;0.1" dur="6s" repeatCount="indefinite" /> </circle><circle cx="392" cy="506" r="1.1497924789598024" fill="#bc13fe" opacity="0.32713046048142164"> <animate attributeName="opacity" values="0.1;0.5;0.1" dur="7s" repeatCount="indefinite" /> </circle><circle cx="207" cy="185" r="1.3181228815953372" fill="#bc13fe" opacity="0.3765889224669507"> <animate attributeName="opacity" values="0.1;0.5;0.1" dur="6s" repeatCount="indefinite" /> </circle><circle cx="155" cy="402" r="1.180936665469081" fill="#bc13fe" opacity="0.08988670383633163"> <animate attributeName="opacity" values="0.1;0.5;0.1" dur="5s" repeatCount="indefinite" /> </circle></g>
        
    
    <!-- Entidad Quantum -->
    <g transform="translate(100, 100) scale(0.8)">
        
        <g filter="url(#neonGlow)">
            <path d="M300,600 L200,400 L400,150 L700,180 L850,450 L750,650" fill="none" stroke="#bc13fe" stroke-width="4" stroke-dasharray="10,5" opacity="0.4" />
            <path d="M300,900 L350,600 L400,350 L550,250 L750,300 L800,550 L750,750 L650,950 Z" fill="none" stroke="#bc13fe" stroke-width="8" opacity="0.8" />
            <path d="M300,900 L350,600 L400,350 L550,250 L750,300 L800,550 L750,750 L650,950 Z" fill="none" stroke="#bc13fe" stroke-width="2" />
        </g>
        <g><rect x="520" y="480" width="60" height="20" fill="none" stroke="#bc13fe" stroke-width="2" filter="url(#microGlow)"/></g>
        <g><circle cx="570" cy="793" r="5" fill="#bc13fe" filter="url(#microGlow)"/><circle cx="484" cy="554" r="5" fill="#bc13fe" filter="url(#microGlow)"/><circle cx="561" cy="660" r="2" fill="#bc13fe" filter="url(#microGlow)"/><circle cx="464" cy="663" r="3" fill="#bc13fe" filter="url(#microGlow)"/><circle cx="530" cy="633" r="5" fill="#bc13fe" filter="url(#microGlow)"/></g>
        <g><path d="M435,263 h30 v30" fill="none" stroke="#bc13fe" stroke-width="0.8" opacity="0.6"/><path d="M344,466 h30 v30" fill="none" stroke="#bc13fe" stroke-width="0.8" opacity="0.6"/><path d="M341,423 h30 v30" fill="none" stroke="#bc13fe" stroke-width="0.8" opacity="0.6"/><path d="M588,537 h30 v30" fill="none" stroke="#bc13fe" stroke-width="0.8" opacity="0.6"/><path d="M360,483 h30 v30" fill="none" stroke="#bc13fe" stroke-width="0.8" opacity="0.6"/><path d="M673,615 h30 v30" fill="none" stroke="#bc13fe" stroke-width="0.8" opacity="0.6"/><path d="M493,662 h30 v30" fill="none" stroke="#bc13fe" stroke-width="0.8" opacity="0.6"/><path d="M606,618 h30 v30" fill="none" stroke="#bc13fe" stroke-width="0.8" opacity="0.6"/><path d="M515,633 h30 v30" fill="none" stroke="#bc13fe" stroke-width="0.8" opacity="0.6"/><path d="M599,528 h30 v30" fill="none" stroke="#bc13fe" stroke-width="0.8" opacity="0.6"/></g>
        
    </g>
    
    <!-- HUD Layer -->
    
        <g font-family="monospace" font-size="10" fill="#bc13fe" opacity="0.7">
            <!-- Esquinas -->
            <path d="M50,50 L100,50 M50,50 L50,100" stroke="#bc13fe" fill="none"/>
            <path d="M950,50 L900,50 M950,50 L950,100" stroke="#bc13fe" fill="none"/>
            <path d="M50,950 L100,950 M50,950 L50,900" stroke="#bc13fe" fill="none"/>
            <path d="M950,950 L900,950 M950,950 L950,900" stroke="#bc13fe" fill="none"/>
            
            <text x="60" y="65">SCANNING_NEURAL_LINK...</text>
            <text x="60" y="80">QUANTUM_STABILITY: 98.4%</text>
            <text x="60" y="935">DEITY_CLASS: ANDROID ALPHA</text>
            <text x="800" y="935">REF_0x00B0F8</text>
        </g>
        
</svg>