<svg width="1000" height="1000" viewBox="0 0 1000 1000" xmlns="http://www.w3.org/2000/svg">
    <defs>
        
        <filter id="neonGlow" x="-50%" y="-50%" width="200%" height="200%">
            <feGaussianBlur stdDeviation="15" result="blur1" />
            <feGaussianBlur stdDeviation="30" result="blur2" />
            <feMerge>
                <feMergeNode in="blur2" />
                <feMergeNode in="blur1" />
                <feMergeNode in="SourceGraphic" />
            </feMerge>
        </filter>
        <filter id="microGlow" x="-20%" y="-20%" width="140%" height="140%">
            <feGaussianBlur stdDeviation="4" result="blur" />
            <feMerge>
                <feMergeNode in="blur" />
                <feMergeNode in="SourceGraphic" />
            </feMerge>
        </filter>
        <radialGradient id="auraGrad" cx="50%" cy="50%" r="50%">
            <stop offset="0%" stop-color="#ff00ff" stop-opacity="0.3"/>
            <stop offset="100%" stop-color="transparent" />
        </radialGradient>
        
    </defs>
    
    <!-- Atmosfera -->
    
        <rect width="1000" height="1000" fill="#050505" />
        <circle cx="500" cy="500" r="600" fill="url(#auraGrad)" opacity="0.5"/>
        <g><line x1="0" y1="0" x2="1000" y2="0" stroke="#ff00ff" stroke-width="0.5" opacity="0.05"/><line x1="0" y1="100" x2="1000" y2="100" stroke="#ff00ff" stroke-width="0.5" opacity="0.05"/><line x1="0" y1="200" x2="1000" y2="200" stroke="#ff00ff" stroke-width="0.5" opacity="0.05"/><line x1="0" y1="300" x2="1000" y2="300" stroke="#ff00ff" stroke-width="0.5" opacity="0.05"/><line x1="0" y1="400" x2="1000" y2="400" stroke="#ff00ff" stroke-width="0.5" opacity="0.05"/><line x1="0" y1="500" x2="1000" y2="500" stroke="#ff00ff" stroke-width="0.5" opacity="0.05"/><line x1="0" y1="600" x2="1000" y2="600" stroke="#ff00ff" stroke-width="0.5" opacity="0.05"/><line x1="0" y1="700" x2="1000" y2="700" stroke="#ff00ff" stroke-width="0.5" opacity="0.05"/><line x1="0" y1="800" x2="1000" y2="800" stroke="#ff00ff" stroke-width="0.5" opacity="0.05"/><line x1="0" y1="900" x2="1000" y2="900" stroke="#ff00ff" stroke-width="0.5" opacity="0.05"/><line x1="0" y1="1000" x2="1000" y2="1000" stroke="#ff00ff" stroke-width="0.5" opacity="0.05"/><line x1="0" y1="0" x2="0" y2="1000" stroke="#ff00ff" stroke-width="0.5" opacity="0.05"/><line x1="100" y1="0" x2="100" y2="1000" stroke="#ff00ff" stroke-width="0.5" opacity="0.05"/><line x1="200" y1="0" x2="200" y2="1000" stroke="#ff00ff" stroke-width="0.5" opacity="0.05"/><line x1="300" y1="0" x2="300" y2="1000" stroke="#ff00ff" stroke-width="0.5" opacity="0.05"/><line x1="400" y1="0" x2="400" y2="1000" stroke="#ff00ff" stroke-width="0.5" opacity="0.05"/><line x1="500" y1="0" x2="500" y2="1000" stroke="#ff00ff" stroke-width="0.5" opacity="0.05"/><line x1="600" y1="0" x2="600" y2="1000" stroke="#ff00ff" stroke-width="0.5" opacity="0.05"/><line x1="700" y1="0" x2="700" y2="1000" stroke="#ff00ff" stroke-width="0.5" opacity="0.05"/><line x1="800" y1="0" x2="800" y2="1000" stroke="#ff00ff" stroke-width="0.5" opacity="0.05"/><line x1="900" y1="0" x2="900" y2="1000" stroke="#ff00ff" stroke-width="0.5" opacity="0.05"/><line x1="1000" y1="0" x2="1000" y2="1000" stroke="#ff00ff" stroke-width="0.5" opacity="0.05"/></g>
        <g><circle cx="941" cy="174" r="1.804209640953059" fill="#ff00ff" opacity="0.2998292286521075"> <animate attributeName="opacity" values="0.1;0.5;0.1" dur="3s" repeatCount="indefinite" /> </circle><circle cx="987" cy="834" r="0.12586054117255108" fill="#ff00ff" opacity="0.17855653806433983"> <animate attributeName="opacity" values="0.1;0.5;0.1" dur="4s" repeatCount="indefinite" /> </circle><circle cx="961" cy="861" r="1.6202478599004841" fill="#ff00ff" opacity="0.14631618110884462"> <animate attributeName="opacity" values="0.1;0.5;0.1" dur="4s" repeatCount="indefinite" /> </circle><circle cx="333" cy="8" r="1.5612899236125026" fill="#ff00ff" opacity="0.2584349577414032"> <animate attributeName="opacity" values="0.1;0.5;0.1" dur="6s" repeatCount="indefinite" /> </circle><circle cx="860" cy="32" r="1.15201746734803" fill="#ff00ff" opacity="0.1475344241327575"> <animate attributeName="opacity" values="0.1;0.5;0.1" dur="3s" repeatCount="indefinite" /> </circle><circle cx="929" cy="401" r="0.8125245522990581" fill="#ff00ff" opacity="0.38682808973261323"> <animate attributeName="opacity" values="0.1;0.5;0.1" dur="7s" repeatCount="indefinite" /> </circle><circle cx="511" cy="580" r="0.9884326122850937" fill="#ff00ff" opacity="0.12431796758256729"> <animate attributeName="opacity" values="0.1;0.5;0.1" dur="4s" repeatCount="indefinite" /> </circle><circle cx="276" cy="138" r="1.5520951286276263" fill="#ff00ff" opacity="0.16813399562810233"> <animate attributeName="opacity" values="0.1;0.5;0.1" dur="6s" repeatCount="indefinite" /> </circle><circle cx="965" cy="366" r="1.0087737081823043" fill="#ff00ff" opacity="0.355223213759875"> <animate attributeName="opacity" values="0.1;0.5;0.1" dur="5s" repeatCount="indefinite" /> </circle><circle cx="166" cy="659" r="0.8279537642918555" fill="#ff00ff" opacity="0.3903320684776413"> <animate attributeName="opacity" values="0.1;0.5;0.1" dur="3s" repeatCount="indefinite" /> </circle><circle cx="381" cy="213" r="1.6084707196340866" fill="#ff00ff" opacity="0.10326452464785621"> <animate attributeName="opacity" values="0.1;0.5;0.1" dur="3s" repeatCount="indefinite" /> </circle><circle cx="762" cy="853" r="0.2404453755999012" fill="#ff00ff" opacity="0.3597514953960725"> <animate attributeName="opacity" values="0.1;0.5;0.1" dur="5s" repeatCount="indefinite" /> </circle><circle cx="801" cy="630" r="0.05863179256824114" fill="#ff00ff" opacity="0.3788442846101259"> <animate attributeName="opacity" values="0.1;0.5;0.1" dur="5s" repeatCount="indefinite" /> </circle><circle cx="498" cy="560" r="1.8828483303907115" fill="#ff00ff" opacity="0.36149712113319293"> <animate attributeName="opacity" values="0.1;0.5;0.1" dur="7s" repeatCount="indefinite" /> </circle><circle cx="324" cy="820" r="1.3707420067553897" fill="#ff00ff" opacity="0.11348135260430059"> <animate attributeName="opacity" values="0.1;0.5;0.1" dur="6s" repeatCount="indefinite" /> </circle><circle cx="543" cy="270" r="0.6799451063260051" fill="#ff00ff" opacity="0.2832814143806951"> <animate attributeName="opacity" values="0.1;0.5;0.1" dur="7s" repeatCount="indefinite" /> </circle><circle cx="117" cy="960" r="1.1766778253256176" fill="#ff00ff" opacity="0.17359522871226318"> <animate attributeName="opacity" values="0.1;0.5;0.1" dur="5s" repeatCount="indefinite" /> </circle><circle cx="173" cy="366" r="1.2959196121229062" fill="#ff00ff" opacity="0.11403219351997117"> <animate attributeName="opacity" values="0.1;0.5;0.1" dur="5s" repeatCount="indefinite" /> </circle><circle cx="960" cy="1000" r="0.8902101651572514" fill="#ff00ff" opacity="0.2381813605985125"> <animate attributeName="opacity" values="0.1;0.5;0.1" dur="7s" repeatCount="indefinite" /> </circle><circle cx="75" cy="481" r="0.39539678225037855" fill="#ff00ff" opacity="0.30733378556160496"> <animate attributeName="opacity" values="0.1;0.5;0.1" dur="3s" repeatCount="indefinite" /> </circle><circle cx="749" cy="84" r="1.3045776864795384" fill="#ff00ff" opacity="0.1356218635917022"> <animate attributeName="opacity" values="0.1;0.5;0.1" dur="6s" repeatCount="indefinite" /> </circle><circle cx="779" cy="538" r="0.572847985553931" fill="#ff00ff" opacity="0.22733816297515688"> <animate attributeName="opacity" values="0.1;0.5;0.1" dur="5s" repeatCount="indefinite" /> </circle><circle cx="367" cy="615" r="1.3426114664144497" fill="#ff00ff" opacity="0.018998880373655203"> <animate attributeName="opacity" values="0.1;0.5;0.1" dur="5s" repeatCount="indefinite" /> </circle><circle cx="294" cy="427" r="1.1154736392200122" fill="#ff00ff" opacity="0.3543965447333849"> <animate attributeName="opacity" values="0.1;0.5;0.1" dur="6s" repeatCount="indefinite" /> </circle><circle cx="188" cy="646" r="1.3106807455580904" fill="#ff00ff" opacity="0.22096478371840328"> <animate attributeName="opacity" values="0.1;0.5;0.1" dur="6s" repeatCount="indefinite" /> </circle><circle cx="113" cy="747" r="1.9981266439448937" fill="#ff00ff" opacity="0.1048013315472701"> <animate attributeName="opacity" values="0.1;0.5;0.1" dur="3s" repeatCount="indefinite" /> </circle><circle cx="280" cy="303" r="0.42419991230685916" fill="#ff00ff" opacity="0.23297210215791023"> <animate attributeName="opacity" values="0.1;0.5;0.1" dur="3s" repeatCount="indefinite" /> </circle><circle cx="591" cy="28" r="0.28910274108793943" fill="#ff00ff" opacity="0.3797502103866752"> <animate attributeName="opacity" values="0.1;0.5;0.1" dur="5s" repeatCount="indefinite" /> </circle><circle cx="652" cy="355" r="0.42011225667400254" fill="#ff00ff" opacity="0.2891531814921663"> <animate attributeName="opacity" values="0.1;0.5;0.1" dur="5s" repeatCount="indefinite" /> </circle><circle cx="572" cy="329" r="1.1151835482757384" fill="#ff00ff" opacity="0.0640437671412859"> <animate attributeName="opacity" values="0.1;0.5;0.1" dur="6s" repeatCount="indefinite" /> </circle><circle cx="917" cy="564" r="1.3688526697781573" fill="#ff00ff" opacity="0.11288267501140217"> <animate attributeName="opacity" values="0.1;0.5;0.1" dur="5s" repeatCount="indefinite" /> </circle><circle cx="672" cy="781" r="1.3017993592855954" fill="#ff00ff" opacity="0.23650784319036955"> <animate attributeName="opacity" values="0.1;0.5;0.1" dur="4s" repeatCount="indefinite" /> </circle><circle cx="581" cy="619" r="1.828497903149217" fill="#ff00ff" opacity="0.37225128862656953"> <animate attributeName="opacity" values="0.1;0.5;0.1" dur="5s" repeatCount="indefinite" /> </circle><circle cx="82" cy="661" r="1.1332081740382594" fill="#ff00ff" opacity="0.022716992770603774"> <animate attributeName="opacity" values="0.1;0.5;0.1" dur="3s" repeatCount="indefinite" /> </circle><circle cx="676" cy="614" r="0.14762206389678778" fill="#ff00ff" opacity="0.14540997962318425"> <animate attributeName="opacity" values="0.1;0.5;0.1" dur="6s" repeatCount="indefinite" /> </circle><circle cx="755" cy="683" r="1.289540630513552" fill="#ff00ff" opacity="0.1435910442394168"> <animate attributeName="opacity" values="0.1;0.5;0.1" dur="6s" repeatCount="indefinite" /> </circle><circle cx="392" cy="131" r="1.791149298043513" fill="#ff00ff" opacity="0.21996235182463006"> <animate attributeName="opacity" values="0.1;0.5;0.1" dur="6s" repeatCount="indefinite" /> </circle><circle cx="915" cy="175" r="0.1656323700646276" fill="#ff00ff" opacity="0.26039763964175255"> <animate attributeName="opacity" values="0.1;0.5;0.1" dur="3s" repeatCount="indefinite" /> </circle><circle cx="698" cy="437" r="0.5843022906274629" fill="#ff00ff" opacity="0.09832056543060808"> <animate attributeName="opacity" values="0.1;0.5;0.1" dur="7s" repeatCount="indefinite" /> </circle><circle cx="384" cy="729" r="1.1265752387286763" fill="#ff00ff" opacity="0.2128312236258943"> <animate attributeName="opacity" values="0.1;0.5;0.1" dur="3s" repeatCount="indefinite" /> </circle><circle cx="376" cy="889" r="1.40379991629726" fill="#ff00ff" opacity="0.0968135755221769"> <animate attributeName="opacity" values="0.1;0.5;0.1" dur="5s" repeatCount="indefinite" /> </circle><circle cx="203" cy="941" r="0.2398525062113419" fill="#ff00ff" opacity="0.2618312057718018"> <animate attributeName="opacity" values="0.1;0.5;0.1" dur="3s" repeatCount="indefinite" /> </circle><circle cx="598" cy="264" r="1.208357648533216" fill="#ff00ff" opacity="0.29968708883111084"> <animate attributeName="opacity" values="0.1;0.5;0.1" dur="4s" repeatCount="indefinite" /> </circle><circle cx="579" cy="618" r="1.5230576876598194" fill="#ff00ff" opacity="0.16344322617376716"> <animate attributeName="opacity" values="0.1;0.5;0.1" dur="3s" repeatCount="indefinite" /> </circle><circle cx="433" cy="141" r="0.8646808283774385" fill="#ff00ff" opacity="0.17138435490543952"> <animate attributeName="opacity" values="0.1;0.5;0.1" dur="7s" repeatCount="indefinite" /> </circle><circle cx="695" cy="884" r="0.9258716917068661" fill="#ff00ff" opacity="0.039248994424029515"> <animate attributeName="opacity" values="0.1;0.5;0.1" dur="5s" repeatCount="indefinite" /> </circle><circle cx="136" cy="861" r="1.9570577352158003" fill="#ff00ff" opacity="0.05823368218208352"> <animate attributeName="opacity" values="0.1;0.5;0.1" dur="6s" repeatCount="indefinite" /> </circle><circle cx="812" cy="859" r="0.8869817404120566" fill="#ff00ff" opacity="0.3719211461117521"> <animate attributeName="opacity" values="0.1;0.5;0.1" dur="5s" repeatCount="indefinite" /> </circle><circle cx="212" cy="337" r="1.8069408098519635" fill="#ff00ff" opacity="0.19741697506241454"> <animate attributeName="opacity" values="0.1;0.5;0.1" dur="7s" repeatCount="indefinite" /> </circle><circle cx="322" cy="732" r="1.8992045614476065" fill="#ff00ff" opacity="0.11453685237397138"> <animate attributeName="opacity" values="0.1;0.5;0.1" dur="5s" repeatCount="indefinite" /> </circle></g>
        
    
    <!-- Entidad Quantum -->
    <g transform="translate(100, 100) scale(0.8)">
        
        <g filter="url(#neonGlow)">
            <path d="M300,600 L200,400 L400,150 L700,180 L850,450 L750,650" fill="none" stroke="#ff00ff" stroke-width="4" stroke-dasharray="10,5" opacity="0.4" />
            <path d="M300,900 L350,600 L400,350 L550,250 L750,300 L800,550 L750,750 L650,950 Z" fill="none" stroke="#ff00ff" stroke-width="8" opacity="0.8" />
            <path d="M300,900 L350,600 L400,350 L550,250 L750,300 L800,550 L750,750 L650,950 Z" fill="none" stroke="#ff00ff" stroke-width="2" />
        </g>
        <g><rect x="520" y="480" width="60" height="20" fill="none" stroke="#ff00ff" stroke-width="2" filter="url(#microGlow)"/></g>
        <g><circle cx="558" cy="604" r="3" fill="#ff00ff" filter="url(#microGlow)"/><circle cx="431" cy="656" r="2" fill="#ff00ff" filter="url(#microGlow)"/><circle cx="450" cy="683" r="2" fill="#ff00ff" filter="url(#microGlow)"/><circle cx="563" cy="430" r="3" fill="#ff00ff" filter="url(#microGlow)"/><circle cx="509" cy="800" r="2" fill="#ff00ff" filter="url(#microGlow)"/><circle cx="472" cy="635" r="5" fill="#ff00ff" filter="url(#microGlow)"/><circle cx="444" cy="739" r="4" fill="#ff00ff" filter="url(#microGlow)"/><circle cx="631" cy="486" r="3" fill="#ff00ff" filter="url(#microGlow)"/><circle cx="546" cy="533" r="5" fill="#ff00ff" filter="url(#microGlow)"/><circle cx="598" cy="616" r="5" fill="#ff00ff" filter="url(#microGlow)"/></g>
        <g><path d="M380,540 h30 v30" fill="none" stroke="#ff00ff" stroke-width="0.8" opacity="0.6"/><path d="M365,740 h30 v30" fill="none" stroke="#ff00ff" stroke-width="0.8" opacity="0.6"/><path d="M382,317 h30 v30" fill="none" stroke="#ff00ff" stroke-width="0.8" opacity="0.6"/><path d="M355,275 h30 v30" fill="none" stroke="#ff00ff" stroke-width="0.8" opacity="0.6"/><path d="M540,495 h30 v30" fill="none" stroke="#ff00ff" stroke-width="0.8" opacity="0.6"/><path d="M530,483 h30 v30" fill="none" stroke="#ff00ff" stroke-width="0.8" opacity="0.6"/><path d="M497,584 h30 v30" fill="none" stroke="#ff00ff" stroke-width="0.8" opacity="0.6"/><path d="M365,320 h30 v30" fill="none" stroke="#ff00ff" stroke-width="0.8" opacity="0.6"/><path d="M445,429 h30 v30" fill="none" stroke="#ff00ff" stroke-width="0.8" opacity="0.6"/><path d="M666,425 h30 v30" fill="none" stroke="#ff00ff" stroke-width="0.8" opacity="0.6"/><path d="M384,612 h30 v30" fill="none" stroke="#ff00ff" stroke-width="0.8" opacity="0.6"/><path d="M693,343 h30 v30" fill="none" stroke="#ff00ff" stroke-width="0.8" opacity="0.6"/><path d="M318,641 h30 v30" fill="none" stroke="#ff00ff" stroke-width="0.8" opacity="0.6"/><path d="M453,611 h30 v30" fill="none" stroke="#ff00ff" stroke-width="0.8" opacity="0.6"/><path d="M340,675 h30 v30" fill="none" stroke="#ff00ff" stroke-width="0.8" opacity="0.6"/><path d="M652,322 h30 v30" fill="none" stroke="#ff00ff" stroke-width="0.8" opacity="0.6"/><path d="M424,394 h30 v30" fill="none" stroke="#ff00ff" stroke-width="0.8" opacity="0.6"/><path d="M306,654 h30 v30" fill="none" stroke="#ff00ff" stroke-width="0.8" opacity="0.6"/><path d="M401,355 h30 v30" fill="none" stroke="#ff00ff" stroke-width="0.8" opacity="0.6"/><path d="M433,635 h30 v30" fill="none" stroke="#ff00ff" stroke-width="0.8" opacity="0.6"/></g>
        
    </g>
    
    <!-- HUD Layer -->
    
        <g font-family="monospace" font-size="10" fill="#ff00ff" opacity="0.7">
            <!-- Esquinas -->
            <path d="M50,50 L100,50 M50,50 L50,100" stroke="#ff00ff" fill="none"/>
            <path d="M950,50 L900,50 M950,50 L950,100" stroke="#ff00ff" fill="none"/>
            <path d="M50,950 L100,950 M50,950 L50,900" stroke="#ff00ff" fill="none"/>
            <path d="M950,950 L900,950 M950,950 L950,900" stroke="#ff00ff" fill="none"/>
            
            <text x="60" y="65">SCANNING_NEURAL_LINK...</text>
            <text x="60" y="80">QUANTUM_STABILITY: 98.4%</text>
            <text x="60" y="935">DEITY_CLASS: ANDROID ALPHA</text>
            <text x="800" y="935">REF_0x41E652</text>
        </g>
        
</svg>